<?xml version="1.0" encoding="utf-8"?>
<!-- Generator: Adobe Illustrator 24.2.1, SVG Export Plug-In . SVG Version: 6.00 Build 0)  -->
<svg version="1.1" id="レイヤー_1" xmlns="http://www.w3.org/2000/svg" xmlns:xlink="http://www.w3.org/1999/xlink" x="0px"
	 y="0px" viewBox="0 0 318 293" style="enable-background:new 0 0 318 293;" xml:space="preserve">
<style type="text/css">
	.st0{opacity:0.8;}
	.st1{fill:#F2E55C;}
	.st2{fill:#FFFFFF;stroke:#000000;stroke-width:7;stroke-linecap:round;stroke-miterlimit:10;}
	.st3{fill:none;stroke:#000000;stroke-width:7;stroke-linecap:round;stroke-miterlimit:10;}
	.st4{stroke:#000000;stroke-width:2;stroke-miterlimit:10;}
	.st5{stroke:#000000;stroke-miterlimit:10;}
	.st6{fill:#F29438;}
</style>
<g>
	<g class="st0">
		<path class="st1" d="M233.3,223.7L261,206c0.9,4.6,3.1,6,7.2,6.2c9.6,0.3,35.6-7.7,36.9-23.9c-1-27.7-7.5-52.3-8.9-80.1
			c0-1,8.9-8.9,9.6-9.9c5.1-7.2,5.6-9.1,6.7-17.3c0.7-8.6-1-16.8-4.1-24.6c1-12.2,0.3-24.1-2-36.4l-3.3,2.2l-0.4-4.9
			c-1.2,0.5-2.3,1.6-3.2,2.5c-6.5,6.8-13.3,12.7-19.5,20.2c-0.7,0.3-1.4,0.7-2.1,0.3c-8.2-3.8-17.1-3.8-26-3.8
			c-0.7,0-1.4-0.3-1.7-0.7c-2.1-6.2-3.8-12-6.5-17.8c-1-2.1-2.7-4.1-4.4-4.8c-4.8-2.4-6.8,4.8-8.9,8.2c-0.3,0.7,0,1-0.3,1.7
			c-1.4,2.4-1.7,4.8-2.7,7.2c-1,3.8-1.4,7.9-2.1,12c-0.3,1-0.7,1.7-1.4,2.4c-8.6,8.6-12.7,20.9-11.1,32.6l-0.7,0.9
			c-1.1-0.1-2.3-0.1-3.4-0.1c-5.8,0-11.4,0.8-16.6,2.3c-19.1-13.5-55.8-17.8-77.8-16.7c-50.6,2.5-91.7,41.5-91.7,92.7
			s36.3,87.2,86.9,87.2l0.3-0.5c8.4,1.4,16.8,2.2,25.1,3c29.1,1.5,57.8-0.3,86.9-0.5c3.8-0.4,7.2,0,11,0.6c2.7,0.7,5.1,1.7,7.5,2.7
			c4.5,2,8.2,5.4,11.7,9.2c0.3,0.3-0.2-0.1,0.1,0.3c4.8,5.1,7.5,12.7,10.9,18.8c1.7,2.7,3.5,5.1,5.9,7.1c3.1,2.4,7.2,4.1,11,2.7
			c0.7-0.3,1.4-0.7,1.7-1c4.1-4.5,2.7-10.6,2.6-16.4c-0.1-6.8-4.4-18-5.4-20.4l0.2,0.2c-4.3-9.2-31.6-24.2-45.3-25.1L233.3,223.7z"
			/>
	</g>
	<g>
		<path class="st2" d="M206.7,74.2c-2.6-0.3-5.2-0.5-8-0.5c-2.1,0-7.5,2-11.3,5.8"/>
		<g>
			<path d="M99.5,239.2c-7.9,0.8-16,0.6-24-0.8c-4-0.6-8-1.7-11.9-2.9c-3.9-1.3-7.7-2.8-11.4-4.7c-7.4-3.7-14.3-8.5-20.3-14.4
				c-1.5-1.4-2.9-3-4.4-4.6c-1.3-1.6-2.7-3.2-4-4.9c-2.6-3.4-4.8-6.9-6.8-10.7c-2.1-3.7-3.7-7.6-5.2-11.6c-0.7-2-1.4-4-2-6
				c-0.6-2-1.1-4.1-1.6-6.1c-0.3-1-0.4-2.1-0.6-3.1c-0.2-1-0.4-2.1-0.6-3.1c-0.3-2.1-0.6-4.2-0.8-6.3l-0.3-3.2l-0.1-3.2
				c-0.1-2.1,0-4.2,0-6.4c0-1.1,0.1-2.1,0.2-3.2c0.1-1.1,0.1-2.1,0.2-3.2c0.3-2.1,0.5-4.2,0.8-6.3c0.6-4.2,1.7-8.4,2.9-12.5
				c2.6-8.2,6.1-16,10.8-23.2c2.3-3.6,4.9-7,7.6-10.3c1.4-1.6,2.8-3.2,4.3-4.7c1.5-1.6,3-3,4.6-4.5c3.2-2.8,6.5-5.5,10-7.9
				c3.5-2.5,7.1-4.6,10.9-6.6c7.5-3.9,15.5-6.9,23.7-8.8c4.1-1,8.3-1.7,12.4-2.2c4.2-0.4,8.4-0.7,12.5-0.6c4.1,0,8.2,0.2,12.3,0.6
				c4.1,0.3,8.1,0.8,12.1,1.4c8,1.2,16,3,23.7,5.4c7.7,2.4,15.4,5.5,22.3,9.8c3.5,2.2,6.8,4.7,9.6,7.6c2.8,3,5.1,6.5,6.3,10.3
				c-2-3.5-4.7-6.3-7.8-8.6c-3.1-2.3-6.5-4.1-10-5.6c-7.1-3-14.6-4.9-22.2-6.3c-7.6-1.4-15.3-2.3-23-2.7c-7.7-0.4-15.4-0.5-23,0
				C92,66,77.5,70.2,64.7,77.4c-6.4,3.6-12.3,7.9-17.6,12.9c-2.7,2.5-5.2,5.1-7.5,7.9c-2.3,2.8-4.5,5.7-6.4,8.8
				c-4,6.1-7,12.7-9.3,19.6c-2.2,6.9-3.6,14.1-4.1,21.4c-0.1,1.8-0.2,3.6-0.2,5.5l0,2.8l0.1,2.8c0,1.8,0.3,3.7,0.4,5.5
				c0.1,0.9,0.2,1.8,0.3,2.7c0.1,0.9,0.2,1.8,0.4,2.7c1.2,7.2,3.3,14.4,6.3,21.1c6,13.4,15.9,25.2,28.6,33.4
				c3.1,2.1,6.5,3.9,9.9,5.6c3.5,1.6,7,3.1,10.7,4.3c0.9,0.3,1.8,0.6,2.8,0.9c0.9,0.3,1.9,0.6,2.8,0.8c1.9,0.5,3.8,1,5.7,1.3
				C91.6,238.3,95.5,238.7,99.5,239.2z"/>
		</g>
		<path class="st3" d="M92.3,206.7c3.8,3.8,15.4,8,21.2,8.7c13.4,1.6,23.5,1.8,36.8,2.4c7.5,0.3,17.6,0,25.1-0.4
			c16.1-0.4,31.8-0.2,47.9,1.8c13.7,0.8,36.9,16.9,40,19.7c11.3,8.6,14.7,21.3,14.7,23.6v2.7c0.1,5.9-2.4,11.9-6.5,16.3
			c-0.3,0.3-1,0.7-1.7,1c-3.8,1.4-7.9-0.3-11-2.7c-2.4-2-4.1-4.4-5.9-7.1c-3.5-6.1-6.1-13.7-10.9-18.8c-0.3-0.3,0.2,0.1-0.1-0.3
			c-3.4-3.7-7.2-7.1-11.7-9.2c-2.4-1-4.8-2-7.5-2.7c-3.8-0.7-7.2-1-11-0.6c-29.1,0.2-57.8,2-86.9,0.5c-10.6-1-21.2-1.9-31.8-4.3
			c-6.5-1.7-12.7-3.7-18.5-7.1c-5.5-3.4-11-6.4-15.1-11.2"/>
		<path class="st3" d="M251,201.6c0.9,4.6,3.1,6,7.2,6.2c9.6,0.3,35.6-7.7,36.9-23.9c-1-27.7-7.5-52.3-8.9-80.1c0-1,8.9-8.9,9.6-9.9
			c5.1-7.2,5.6-9.1,6.7-17.3c0.7-8.6-1-16.8-4.1-24.6c1-12.2,0.3-24.1-2-36.4l-3.3,2.2l-0.4-4.9c-1.2,0.5-2.3,1.6-3.2,2.5
			C283,22.1,276.2,28,270,35.5c-0.7,0.3-1.4,0.7-2.1,0.3c-8.2-3.8-17.1-3.8-26-3.8c-0.7,0-1.4-0.3-1.7-0.7c-2.1-6.2-3.8-12-6.5-17.8
			c-1-2.1-2.7-4.1-4.4-4.8c-4.8-2.4-6.8,4.8-8.9,8.2c-0.3,0.7,0,1-0.3,1.7c-1.4,2.4-1.7,4.8-2.7,7.2c-1,3.8-1.4,7.9-2.1,12
			c-0.3,1-0.7,1.7-1.4,2.4c-8.6,8.6-12.7,20.9-11.1,32.6"/>
	</g>
	<g>
		<path class="st4" d="M65.1,141c-0.6,0.1-1.8,0.2-3.5,0c-3.4-0.3-6.6-1.1-9.6-2.4c-1.1-0.5-1.7-1.3-2-2.3c-0.1-0.6-0.1-1.1,0.2-1.6
			c0.3-0.7,0.8-1.1,1.5-1.2c0.5-0.1,1.3,0.1,2.3,0.6c3.1,1.6,6.6,2.8,10.6,3.7c1,0.2,1.6,0.7,1.8,1.4
			C66.6,140.1,66.2,140.7,65.1,141z M94.5,128.7c1.2,0,1.8,0.6,1.8,1.7c0,1-1,3.1-3,6.3c-6,9.4-14.5,18.1-25.4,23.6
			c-4.8,2.4-7.7,3.7-8.8,3.7c-1,0-1.6-0.4-2.1-1.3c-0.2-0.4-0.3-0.9-0.3-1.3c0-0.9,0.4-1.6,1.1-2c0.1-0.1,1.3-0.6,3.6-1.5
			c6.8-2.7,14.4-8.5,20.2-13.6c5-4.4,7.7-8.5,10.8-13.9C93,129.2,93.7,128.7,94.5,128.7z M66.5,127.2c-0.5,0.1-1.2,0.2-2.2,0.1
			c-4.5-0.3-7.9-1-10.4-2.2c-1.2-0.6-1.9-1.3-2.1-2.1c-0.2-0.6-0.1-1.3,0.2-1.9c0.3-0.6,0.7-1,1.3-1.2c0.6-0.2,1.5-0.1,2.5,0.4
			c3.2,1.5,6.6,2.7,10.2,3.5c1,0.2,1.6,0.6,1.7,1.2C68,126.2,67.6,126.9,66.5,127.2z"/>
		<path class="st4" d="M122.8,145c-5.9,6.3-12.2,11.4-19,15.3c-1.3,0.8-2.2,1.1-2.7,1.1c-0.6,0-1.1-0.3-1.4-0.8
			c-0.2-0.3-0.3-0.6-0.3-1c0-0.5,0.2-1,0.7-1.4c0.1-0.1,0.8-0.6,2.1-1.4c5.7-3.5,11.3-8.3,16.8-14.4c4.9-5.4,8.5-10.5,11-15.5
			c0.6-1.3,0.9-2.1,0.9-2.4c0-0.3-0.2-0.5-0.7-0.5c-0.2,0-0.7,0-1.4,0.1c-2.7,0.4-6.6,0.7-11.7,1.1c-3.7,0.3-6.4,0.5-7.8,0.6
			c-0.3,0-0.5,0-0.7,0c-1.6,0-2.4-0.7-2.4-2.2c0-1.2,0.6-1.9,1.7-2.2c0.3-0.1,1.1-0.2,2.4-0.2c4.7-0.3,9.8-0.7,15.3-1.2
			c3.9-0.4,6.2-0.6,7-0.6c1.1,0,2,0.2,2.7,0.7c0.9,0.6,1.3,1.4,1.3,2.6c0,0.9-0.5,2.5-1.6,4.6c-2.2,4.6-5.5,9.6-9.7,14.7
			c6.8,4.2,12.3,8.6,16.6,13.2c0.9,1,1.4,2,1.4,2.9c0,0.7-0.2,1.3-0.7,1.9c-0.5,0.5-1,0.7-1.7,0.7c-0.6,0-1.1-0.2-1.6-0.7
			c-0.1-0.1-0.4-0.5-1.1-1.2C133.7,154,128.6,149.4,122.8,145z M139.3,113.9c0.5,0,1,0.2,1.6,0.7c2.5,1.8,4.3,3.7,5.6,5.8
			c0.4,0.6,0.5,1.1,0.5,1.6c0,0.6-0.2,1-0.6,1.4c-0.4,0.3-0.8,0.5-1.3,0.5c-0.6,0-1.1-0.4-1.6-1.3c-1.4-2.2-2.9-4.1-4.5-5.9
			c-0.6-0.6-0.9-1.1-0.9-1.5C138.2,114.2,138.5,113.9,139.3,113.9z M144.6,109.7c1,0,2.6,1,4.9,3.1c1.9,1.7,2.8,3.1,2.8,4.2
			c0,0.7-0.2,1.2-0.7,1.5c-0.4,0.3-0.8,0.4-1.2,0.4c-0.6,0-1.1-0.4-1.6-1.2c-1.4-2.1-2.9-4-4.5-5.5c-0.6-0.6-0.9-1.1-0.9-1.5
			C143.4,110.1,143.8,109.7,144.6,109.7z"/>
		<path class="st4" d="M174.2,134.7v-10.4c0-0.5,0.1-0.9,0.2-1.2c-4.2,1.6-7.9,2.8-11.3,3.6c-0.7,0.2-1.2,0.2-1.5,0.2
			c-1.2,0-1.8-0.5-1.8-1.6c0-0.6,0.2-1,0.6-1.3c0.2-0.1,1-0.4,2.3-0.8c4.8-1.5,9.5-3.5,14.3-6c2.1-1.1,3.8-2.2,5.1-3.1
			c0.8-0.6,1.5-0.9,2-0.9c0.7,0,1.4,0.3,1.9,1c0.3,0.4,0.5,0.9,0.5,1.5c0,0.9-0.5,1.6-1.5,2.2c-2.2,1.3-4.7,2.6-7.7,4
			c1,0.4,1.5,1.2,1.5,2.4v10.1l1.3-0.1c9.6-0.6,15-0.9,16.3-0.9c2,0,3,0.7,3,2.2c0,1.2-0.5,1.9-1.6,2.2c-0.3,0.1-1,0.1-2.1,0.2
			c-4.7,0.1-10.3,0.4-17,0.8c-0.2,9.5-2.8,16.7-7.5,21.6c-2.5,2.5-4.4,3.8-5.8,3.8c-0.4,0-0.8-0.2-1-0.5c-0.2-0.3-0.4-0.6-0.4-1
			c0-0.6,0.4-1.2,1.2-1.9c3.7-3.2,6.2-7.3,7.6-12.1c0.8-2.8,1.2-6,1.3-9.6c-7.6,0.5-13.8,1.1-18.8,1.9c-0.4,0.1-0.7,0.1-0.9,0.1
			c-1.6,0-2.4-0.7-2.4-2.1c0-1.4,0.7-2.2,2.2-2.4C159,136,165.6,135.3,174.2,134.7z"/>
		<path class="st4" d="M230.5,131.1l0.9-0.1c6.7-0.6,10.5-1,11.2-1c0.5-0.1,1-0.1,1.4-0.1c3.4,0,5.1,1.6,5.1,4.8
			c0,1.9-0.5,5.5-1.6,10.7c-1.4,7.1-2.6,8-4.9,13.4c-1.6,3.8-3.5,5.7-5.6,5.7c-1,0-1.9-0.4-2.9-1.1c-0.8-0.6-2.7-2.2-5.8-4.8
			c-1-0.8-1.5-1.6-1.5-2.2c0-0.3,0.1-0.6,0.3-0.9c0.3-0.4,0.6-0.6,1-0.6c0.5,0,1.3,0.3,2.2,0.9c3.2,2,5.1,3,5.7,3
			c0.7,0,1.4-0.9,2.2-2.6c2.1-4.5,3.2-4.8,4.5-11.6c0.8-4.2,1.2-7,1.2-8.5c0-1-0.5-1.5-1.4-1.5c-0.3,0-0.7,0-1.1,0.1
			c-0.2,0-3,0.3-8.3,0.7c-0.6,0-2.1,0.1-4.3,0.3c-0.8,2.6-7.7,19.2-10.7,21.4c-0.8,0.7-1.5,1-2.1,1c-0.5,0-2.2-0.2-2.5-0.6
			c-0.3-0.4-0.7-0.8-0.7-1.3c0-0.5,0.4-0.9,0.8-1.3c0.1-0.2,0.9-0.9,2.2-2.1c2.2-1.9,4.7-6.5,5.3-8.5c1.2-2.5,1.7-5.1,2.7-8.1
			c-2.9,0.3-5.7,0.5-8.4,0.7c-2.4,0.2-3.9,0.3-4.6,0.4c-0.3,0-0.6,0-0.7,0c-1.7,0-2.5-0.8-2.5-2.3c0-1.1,0.5-1.8,1.6-2.2
			c0.3-0.1,1-0.2,1.9-0.2c1.6-0.1,5.8-0.4,12.6-0.9l1.3-0.1c1.1-5.1,1.8-8.9,2.1-11.4c0.2-1.7,1.1-2.6,2.6-2.6
			c0.8,0,1.4,0.3,1.9,0.8c0.4,0.4,0.6,1,0.6,1.6C232.5,121.4,231.9,125.1,230.5,131.1z"/>
	</g>
	<g>
		<path d="M202.2,202c-0.5,0-1.2,0.4-2.2,1.1c-2.8,2-5.3,3-7.4,3c-2.8,0-4.1-1.2-4.1-3.6c0-2.4,1-5.4,3-8.9c2-3.5,3.8-5.3,5.3-5.3
			c0.7,0,1.3,0.9,1.7,2.7c0.3,1.7,0.9,2.5,1.8,2.5c0.4,0,0.7-0.3,1.1-0.9c0.4-0.6,0.5-1.3,0.5-2.2c0-1.4-0.4-2.7-1.3-4
			c-0.8-1.3-1.8-1.9-3-1.9c-2.5,0-5.3,2.1-8.3,6.2c-3,4.1-4.4,8.1-4.4,11.8c0,2.2,0.6,3.9,1.7,5.2c1.2,1.2,2.8,1.8,4.9,1.8
			c2.5,0,5-0.8,7.5-2.5c2.6-1.7,3.8-3,3.8-4.1C202.9,202.3,202.7,202,202.2,202z"/>
		<path d="M228,205.9c-1.3-0.7-2-2.8-2-6.2c0-1.7,0.4-4.7,1.2-8.9c0.1-0.8,0.2-1.4,0.2-1.8c0-0.9-0.6-1.3-1.7-1.3
			c-0.4,0-0.7-0.2-0.9-0.7c-0.6-1.4-1.5-2.1-2.7-2.1c-3.3,0-6.7,2.2-10,6.5c-3.4,4.3-5,8.4-5,12.1c0,1.5,0.4,2.7,1.2,3.6
			c0.8,0.9,1.8,1.4,2.9,1.4c1.6,0,3.4-0.7,5.4-2c2-1.3,3.9-3.4,5.9-6c0,2.8,0.4,5,1.1,6.5c0.7,1.5,1.6,2.3,2.7,2.3
			c0.6,0,1.2-0.2,1.8-0.7c0.6-0.5,0.9-0.9,0.9-1.3C228.9,206.6,228.6,206.2,228,205.9z M219,200.1c-2.8,3.2-5,4.8-6.5,4.8
			c-1.1,0-1.6-0.8-1.6-2.5c0-2.3,1.3-5.3,3.8-8.8c2.5-3.5,4.7-5.3,6.6-5.3c1.3,0,2,1,2,3.1C223.1,194,221.7,197,219,200.1z"/>
		<path d="M248.3,180.7c0.6,0,1.2-0.7,1.7-2c0.5-1.3,0.7-2.5,0.7-3.5c0-1.3-0.4-2.4-1.3-3.2c-0.9-0.9-2-1.3-3.2-1.3
			c-2.4,0-4.4,1-5.9,2.9c-1.6,2-2.7,5.2-3.4,9.6c-0.2,1.2-0.4,2.2-0.6,2.9c-0.2,0.7-0.6,1.3-1.3,1.9c-0.9,0.7-1.4,1.4-1.4,2
			c0,0.4,0.3,0.8,0.9,1.2c0.6,0.4,0.9,0.8,0.9,1c0,1.5-0.2,3.7-0.6,6.6c-0.7,4.7-1,7.6-1,8.6c0,2.1,0.7,3.2,2.2,3.2
			c0.4,0,0.9-0.1,1.3-0.4c0.4-0.2,0.7-0.5,0.8-0.9c0-0.1-0.1-0.5-0.1-1.1c-0.1-0.6-0.2-1.5-0.2-2.8c0-4.2,0.5-8.9,1.4-14.2
			c0.3-0.1,1.4-0.3,3.5-0.5c2.4-0.2,4-0.5,4.7-0.8c0.7-0.3,1.1-0.8,1.1-1.3c0-0.6-0.3-0.9-1-0.8c-0.7,0-2.9,0-6.6,0
			c-0.9,0-1.3-0.3-1.3-1c0-2.1,0.5-4.7,1.7-8c1.1-3.3,2.5-4.9,4.2-4.9c1.5,0,2.3,1.4,2.3,4.1l-0.2,2.1
			C247.6,180.4,247.8,180.7,248.3,180.7z"/>
		<path d="M263.3,207.1c0.2-0.2,0.5-0.3,0.7-0.5c-0.1,0-0.1,0-0.2,0c-0.2,0-0.4,0-0.6,0c-0.2,0-0.5,0-0.7,0c-1.1,0-2.3-0.1-3.4-0.3
			c-0.1,0-0.2,0-0.2-0.1c0,0,0,0,0,0c-0.2,0-0.4,0-0.6-0.1c-0.2,0-0.5-0.1-0.6-0.2c-0.3,0-0.5-0.1-0.7-0.2c0,0-0.1,0-0.1,0
			c-0.2,0-0.4-0.1-0.6-0.2c-0.1,0-0.2,0-0.3,0c-0.4-0.2-0.9-0.3-1.3-0.5c-0.2-0.1-0.4-0.3-0.6-0.5c-0.7-0.7-1-1.7-1-2.9
			c0-0.6,0.4-1.1,1.1-1.5c3.6-1.9,6.5-3.9,8.7-5.9c2.2-2,3.2-4.1,3.2-6.3c0-1-0.3-1.8-1-2.5c-0.7-0.7-1.6-1.1-2.6-1.1
			c-3.3,0-6.3,1.8-9,5.5c-2.8,3.7-4.1,7.6-4.1,11.7c0,2.4,0.6,4.3,1.9,5.7c1.1,1.2,2.7,1.9,4.6,2c1.3,0.2,2.7,0.3,3.2,0.3
			c0.9,0,12.3-2.1,12.3-3.1C268.1,207.1,265.5,207.2,263.3,207.1z M257,190.5c1.7-1.9,3.1-2.9,4.4-2.9c0.8,0,1.2,0.4,1.2,1.3
			c0,2.2-3,5.1-9.1,8.7C254.2,194.8,255.4,192.4,257,190.5z"/>
	</g>
	<g>
		<path class="st5" d="M130.4,191.9c0.2,0,0.5,0.1,0.9,0.3c1.4,0.7,2.4,1.2,3,1.7c0.4,0.3,0.6,0.6,0.6,1c0,0.2-0.1,0.4-0.2,0.7
			c-0.2,0.3-0.5,0.4-0.8,0.4c-0.3,0-0.6-0.2-1-0.5c-0.8-0.7-1.6-1.4-2.6-2.2c-0.3-0.2-0.4-0.5-0.4-0.7
			C129.8,192.2,130,191.9,130.4,191.9z M135.7,198.3c0.1,0,0.3,0,0.4,0.1c0.3,0.1,0.5,0.4,0.5,0.7c0,0.2-0.1,0.6-0.3,1.1
			c-1,2.4-2.2,4.5-3.5,6.4c-0.3,0.5-0.7,0.7-1.1,0.7c-0.2,0-0.5-0.1-0.7-0.2c-0.3-0.2-0.4-0.5-0.4-0.8c0-0.3,0.2-0.7,0.6-1.3
			c1.8-2.5,3-4.5,3.7-5.9C135,198.5,135.3,198.3,135.7,198.3z M132.1,186.1c0.6,0,1.5,0.5,2.9,1.4c0.5,0.3,0.8,0.6,1,0.7
			c0.3,0.3,0.4,0.5,0.4,0.9c0,0.2-0.1,0.4-0.2,0.6c-0.2,0.3-0.5,0.5-0.9,0.5c-0.3,0-0.7-0.2-1.1-0.6c-0.6-0.5-1.4-1.2-2.4-2
			c-0.3-0.2-0.4-0.5-0.4-0.7C131.4,186.3,131.6,186.1,132.1,186.1z M146.6,191.3v3l4.7-0.3c0.1,0,0.1,0,0.1,0c0.6,0,0.9,0.3,0.9,0.9
			c0,0.6-0.3,0.9-0.9,0.9l-4.8,0.3v3.3l7.2-0.4l0.1,0c0.3,0,0.6,0.1,0.8,0.4c0.1,0.1,0.2,0.3,0.2,0.5c0,0.6-0.3,0.9-0.9,1l-7.4,0.4
			v7.1c0,0.3-0.1,0.5-0.3,0.7c-0.2,0.2-0.4,0.3-0.7,0.3c-0.4,0-0.7-0.1-0.9-0.4c-0.1-0.1-0.2-0.3-0.2-0.6v-6.9l-6.8,0.4
			c-0.1,0-0.1,0-0.1,0c-0.6,0-0.9-0.3-0.9-0.9c0-0.6,0.3-0.9,0.9-0.9l7-0.4v-3.3l-4.7,0.3c0,0-0.1,0-0.2,0c-0.6,0-0.9-0.3-0.9-0.9
			c0-0.5,0.3-0.8,0.9-0.8l4.9-0.3v-3l-5.5,0.4c0,0-0.1,0-0.1,0c-0.6,0-0.9-0.3-0.9-0.9c0-0.6,0.3-0.9,0.8-0.9l7.7-0.6
			c0.6-0.8,1.3-2.3,2.1-4.3c0.2-0.6,0.6-0.9,1.1-0.9c0.2,0,0.4,0,0.6,0.1c0.4,0.2,0.6,0.5,0.6,0.9c0,0.7-0.7,2.1-2.2,4.1l3.6-0.3
			c0,0,0.1,0,0.1,0c0.6,0,0.9,0.3,0.9,0.9c0,0.6-0.3,0.8-0.9,0.9L146.6,191.3z M140.4,184.8c0.4,0,1,0.5,1.8,1.5
			c0.9,1.1,1.3,1.9,1.3,2.4c0,0.3-0.1,0.6-0.4,0.8c-0.2,0.2-0.5,0.2-0.8,0.2c-0.4,0-0.8-0.2-0.9-0.7c-0.4-1-0.8-2-1.5-2.9
			c-0.2-0.3-0.3-0.5-0.3-0.7C139.6,185,139.9,184.8,140.4,184.8z"/>
		<path class="st5" d="M168.7,185.4c3.6,3,7.3,5.3,11.3,7c0.6,0.2,0.8,0.5,0.8,0.6c0,0.2-0.2,0.3-0.6,0.4c-0.9,0.3-1.6,0.4-2,0.4
			c-0.3,0-0.6-0.1-0.9-0.2c-1.8-1-3.7-2.3-5.9-4c-1.4-1.1-2.7-2.2-3.7-3.1c-2.5,2.7-5.4,5-8.8,6.9c-1.6,0.9-2.6,1.3-2.9,1.3
			c-0.2,0-0.4-0.1-0.5-0.3c-0.1-0.1-0.1-0.3-0.1-0.4c0-0.2,0.1-0.4,0.3-0.6c0.1,0,0.4-0.2,1.1-0.6c2.3-1.2,4.6-2.9,6.9-4.9
			c1.3-1.2,2.4-2.4,3.2-3.5c0.3-0.5,0.7-0.7,1-0.7c0.2,0,0.4,0.1,0.6,0.2c0.3,0.2,0.4,0.4,0.4,0.7
			C168.9,184.9,168.8,185.2,168.7,185.4z M161.2,193.7c-0.3-0.1-0.5-0.3-0.5-0.7c0-0.5,0.2-0.7,0.7-0.8l5.2-0.5v-2.6
			c0-0.3,0.1-0.5,0.3-0.7c0.2-0.1,0.4-0.2,0.7-0.2c0.3,0,0.6,0.1,0.8,0.3c0.1,0.2,0.2,0.3,0.2,0.6v2.5l4.1-0.3c0.1,0,0.2,0,0.2,0
			c0.5,0,0.9,0.2,1.2,0.5c0.3,0.3,0.4,0.7,0.4,1.2c0,0.1,0,0.2,0,0.3l-0.7,6.4c-0.1,0.6-0.4,0.9-1,0.9c-0.5,0-0.8-0.2-0.9-0.7
			l-8.8,0.7v6.6c1.3-0.2,2.9-0.7,4.7-1.5c0.3-0.1,0.5-0.2,0.7-0.2c0.3,0,0.5,0.1,0.6,0.3c0.1,0.1,0.1,0.2,0.1,0.4
			c0,0.3-0.2,0.5-0.5,0.7c-1.4,0.8-3.1,1.5-5.1,2.1c-0.6,0.2-1,0.3-1.2,0.3c-0.2,0-0.5-0.1-0.8-0.4c-0.3-0.3-0.5-0.7-0.5-1.3V193.7z
			 M163.2,193.6v1.9l9.2-0.7l0.1-1.3c0,0,0-0.1,0-0.1c0-0.3-0.1-0.5-0.4-0.5l-0.1,0L163.2,193.6z M163.2,196.9v2.1l8.9-0.7l0.2-2
			L163.2,196.9z M170.5,203.5c1.6-1.1,2.9-2.2,4-3.2c0.3-0.3,0.6-0.4,0.9-0.4c0.3,0,0.5,0.1,0.7,0.3c0.2,0.2,0.4,0.5,0.4,0.8
			c0,0.3-0.2,0.6-0.5,0.9c-1.1,0.8-2.4,1.7-3.9,2.5c2.2,1.1,4.5,2,6.8,2.6c0.7,0.2,1.1,0.4,1.1,0.6c0,0.2-0.2,0.3-0.5,0.4
			c-1.1,0.4-1.9,0.5-2.6,0.5c-0.4,0-0.9-0.1-1.5-0.4c-1.9-0.9-4-2.1-6.2-3.6c-2.4-1.7-3.6-2.7-3.6-3.2c0-0.1,0.1-0.3,0.2-0.4
			c0.2-0.2,0.4-0.2,0.6-0.2c0.2,0,0.7,0.3,1.4,0.9C168.3,202.1,169.3,202.8,170.5,203.5z"/>
	</g>
	<g class="st0">
		<path class="st6" d="M233.3,223.7L261,206c0.9,4.6,3.1,6,7.2,6.2c9.6,0.3,35.6-7.7,36.9-23.9c-1-27.7-7.5-52.3-8.9-80.1
			c0-1,8.9-8.9,9.6-9.9c5.1-7.2,5.6-9.1,6.7-17.3c0.7-8.6-1-16.8-4.1-24.6c1-12.2,0.3-24.1-2-36.4l-3.3,2.2l-0.4-4.9
			c-1.2,0.5-2.3,1.6-3.2,2.5c-6.5,6.8-13.3,12.7-19.5,20.2c-0.7,0.3-1.4,0.7-2.1,0.3c-8.2-3.8-17.1-3.8-26-3.8
			c-0.7,0-1.4-0.3-1.7-0.7c-2.1-6.2-3.8-12-6.5-17.8c-1-2.1-2.7-4.1-4.4-4.8c-4.8-2.4-6.8,4.8-8.9,8.2c-0.3,0.7,0,1-0.3,1.7
			c-1.4,2.4-1.7,4.8-2.7,7.2c-1,3.8-1.4,7.9-2.1,12c-0.3,1-0.7,1.7-1.4,2.4c-8.6,8.6-12.7,20.9-11.1,32.6l-0.7,0.9
			c-1.1-0.1-2.3-0.1-3.4-0.1c-5.8,0-11.4,0.8-16.6,2.3c-19.1-13.5-55.8-17.8-77.8-16.7c-50.6,2.5-91.7,41.5-91.7,92.7
			s36.3,87.2,86.9,87.2l0.3-0.5c8.4,1.4,16.8,2.2,25.1,3c29.1,1.5,57.8-0.3,86.9-0.5c3.8-0.4,7.2,0,11,0.6c2.7,0.7,5.1,1.7,7.5,2.7
			c4.5,2,8.2,5.4,11.7,9.2c0.3,0.3-0.2-0.1,0.1,0.3c4.8,5.1,7.5,12.7,10.9,18.8c1.7,2.7,3.5,5.1,5.9,7.1c3.1,2.4,7.2,4.1,11,2.7
			c0.7-0.3,1.4-0.7,1.7-1c4.1-4.5,2.7-10.6,2.6-16.4c-0.1-6.8-4.4-18-5.4-20.4l0.2,0.2c-4.3-9.2-31.6-24.2-45.3-25.1L233.3,223.7z"
			/>
	</g>
	<g>
		<path class="st2" d="M206.7,74.2c-2.6-0.3-5.2-0.5-8-0.5c-2.1,0-7.5,2-11.3,5.8"/>
		<g>
			<path d="M99.5,239.2c-7.9,0.8-16,0.6-24-0.8c-4-0.6-8-1.7-11.9-2.9c-3.9-1.3-7.7-2.8-11.4-4.7c-7.4-3.7-14.3-8.5-20.3-14.4
				c-1.5-1.4-2.9-3-4.4-4.6c-1.3-1.6-2.7-3.2-4-4.9c-2.6-3.4-4.8-6.9-6.8-10.7c-2.1-3.7-3.7-7.6-5.2-11.6c-0.7-2-1.4-4-2-6
				c-0.6-2-1.1-4.1-1.6-6.1c-0.3-1-0.4-2.1-0.6-3.1c-0.2-1-0.4-2.1-0.6-3.1c-0.3-2.1-0.6-4.2-0.8-6.3l-0.3-3.2l-0.1-3.2
				c-0.1-2.1,0-4.2,0-6.4c0-1.1,0.1-2.1,0.2-3.2c0.1-1.1,0.1-2.1,0.2-3.2c0.3-2.1,0.5-4.2,0.8-6.3c0.6-4.2,1.7-8.4,2.9-12.5
				c2.6-8.2,6.1-16,10.8-23.2c2.3-3.6,4.9-7,7.6-10.3c1.4-1.6,2.8-3.2,4.3-4.7c1.5-1.6,3-3,4.6-4.5c3.2-2.8,6.5-5.5,10-7.9
				c3.5-2.5,7.1-4.6,10.9-6.6c7.5-3.9,15.5-6.9,23.7-8.8c4.1-1,8.3-1.7,12.4-2.2c4.2-0.4,8.4-0.7,12.5-0.6c4.1,0,8.2,0.2,12.3,0.6
				c4.1,0.3,8.1,0.8,12.1,1.4c8,1.2,16,3,23.7,5.4c7.7,2.4,15.4,5.5,22.3,9.8c3.5,2.2,6.8,4.7,9.6,7.6c2.8,3,5.1,6.5,6.3,10.3
				c-2-3.5-4.7-6.3-7.8-8.6c-3.1-2.3-6.5-4.1-10-5.6c-7.1-3-14.6-4.9-22.2-6.3c-7.6-1.4-15.3-2.3-23-2.7c-7.7-0.4-15.4-0.5-23,0
				C92,66,77.5,70.2,64.7,77.4c-6.4,3.6-12.3,7.9-17.6,12.9c-2.7,2.5-5.2,5.1-7.5,7.9c-2.3,2.8-4.5,5.7-6.4,8.8
				c-4,6.1-7,12.7-9.3,19.6c-2.2,6.9-3.6,14.1-4.1,21.4c-0.1,1.8-0.2,3.6-0.2,5.5l0,2.8l0.1,2.8c0,1.8,0.3,3.7,0.4,5.5
				c0.1,0.9,0.2,1.8,0.3,2.7c0.1,0.9,0.2,1.8,0.4,2.7c1.2,7.2,3.3,14.4,6.3,21.1c6,13.4,15.9,25.2,28.6,33.4
				c3.1,2.1,6.5,3.9,9.9,5.6c3.5,1.6,7,3.1,10.7,4.3c0.9,0.3,1.8,0.6,2.8,0.9c0.9,0.3,1.9,0.6,2.8,0.8c1.9,0.5,3.8,1,5.7,1.3
				C91.6,238.3,95.5,238.7,99.5,239.2z"/>
		</g>
		<path class="st3" d="M92.3,206.7c3.8,3.8,15.4,8,21.2,8.7c13.4,1.6,23.5,1.8,36.8,2.4c7.5,0.3,17.6,0,25.1-0.4
			c16.1-0.4,31.8-0.2,47.9,1.8c13.7,0.8,36.9,16.9,40,19.7c11.3,8.6,14.7,21.3,14.7,23.6v2.7c0.1,5.9-2.4,11.9-6.5,16.3
			c-0.3,0.3-1,0.7-1.7,1c-3.8,1.4-7.9-0.3-11-2.7c-2.4-2-4.1-4.4-5.9-7.1c-3.5-6.1-6.1-13.7-10.9-18.8c-0.3-0.3,0.2,0.1-0.1-0.3
			c-3.4-3.7-7.2-7.1-11.7-9.2c-2.4-1-4.8-2-7.5-2.7c-3.8-0.7-7.2-1-11-0.6c-29.1,0.2-57.8,2-86.9,0.5c-10.6-1-21.2-1.9-31.8-4.3
			c-6.5-1.7-12.7-3.7-18.5-7.1c-5.5-3.4-11-6.4-15.1-11.2"/>
		<path class="st3" d="M251,201.6c0.9,4.6,3.1,6,7.2,6.2c9.6,0.3,35.6-7.7,36.9-23.9c-1-27.7-7.5-52.3-8.9-80.1c0-1,8.9-8.9,9.6-9.9
			c5.1-7.2,5.6-9.1,6.7-17.3c0.7-8.6-1-16.8-4.1-24.6c1-12.2,0.3-24.1-2-36.4l-3.3,2.2l-0.4-4.9c-1.2,0.5-2.3,1.6-3.2,2.5
			C283,22.1,276.2,28,270,35.5c-0.7,0.3-1.4,0.7-2.1,0.3c-8.2-3.8-17.1-3.8-26-3.8c-0.7,0-1.4-0.3-1.7-0.7c-2.1-6.2-3.8-12-6.5-17.8
			c-1-2.1-2.7-4.1-4.4-4.8c-4.8-2.4-6.8,4.8-8.9,8.2c-0.3,0.7,0,1-0.3,1.7c-1.4,2.4-1.7,4.8-2.7,7.2c-1,3.8-1.4,7.9-2.1,12
			c-0.3,1-0.7,1.7-1.4,2.4c-8.6,8.6-12.7,20.9-11.1,32.6"/>
	</g>
	<g>
		<path class="st4" d="M65.1,141c-0.6,0.1-1.8,0.2-3.5,0c-3.4-0.3-6.6-1.1-9.6-2.4c-1.1-0.5-1.7-1.3-2-2.3c-0.1-0.6-0.1-1.1,0.2-1.6
			c0.3-0.7,0.8-1.1,1.5-1.2c0.5-0.1,1.3,0.1,2.3,0.6c3.1,1.6,6.6,2.8,10.6,3.7c1,0.2,1.6,0.7,1.8,1.4
			C66.6,140.1,66.2,140.7,65.1,141z M94.5,128.7c1.2,0,1.8,0.6,1.8,1.7c0,1-1,3.1-3,6.3c-6,9.4-14.5,18.1-25.4,23.6
			c-4.8,2.4-7.7,3.7-8.8,3.7c-1,0-1.6-0.4-2.1-1.3c-0.2-0.4-0.3-0.9-0.3-1.3c0-0.9,0.4-1.6,1.1-2c0.1-0.1,1.3-0.6,3.6-1.5
			c6.8-2.7,14.4-8.5,20.2-13.6c5-4.4,7.7-8.5,10.8-13.9C93,129.2,93.7,128.7,94.5,128.7z M66.5,127.2c-0.5,0.1-1.2,0.2-2.2,0.1
			c-4.5-0.3-7.9-1-10.4-2.2c-1.2-0.6-1.9-1.3-2.1-2.1c-0.2-0.6-0.1-1.3,0.2-1.9c0.3-0.6,0.7-1,1.3-1.2c0.6-0.2,1.5-0.1,2.5,0.4
			c3.2,1.5,6.6,2.7,10.2,3.5c1,0.2,1.6,0.6,1.7,1.2C68,126.2,67.6,126.9,66.5,127.2z"/>
		<path class="st4" d="M122.8,145c-5.9,6.3-12.2,11.4-19,15.3c-1.3,0.8-2.2,1.1-2.7,1.1c-0.6,0-1.1-0.3-1.4-0.8
			c-0.2-0.3-0.3-0.6-0.3-1c0-0.5,0.2-1,0.7-1.4c0.1-0.1,0.8-0.6,2.1-1.4c5.7-3.5,11.3-8.3,16.8-14.4c4.9-5.4,8.5-10.5,11-15.5
			c0.6-1.3,0.9-2.1,0.9-2.4c0-0.3-0.2-0.5-0.7-0.5c-0.2,0-0.7,0-1.4,0.1c-2.7,0.4-6.6,0.7-11.7,1.1c-3.7,0.3-6.4,0.5-7.8,0.6
			c-0.3,0-0.5,0-0.7,0c-1.6,0-2.4-0.7-2.4-2.2c0-1.2,0.6-1.9,1.7-2.2c0.3-0.1,1.1-0.2,2.4-0.2c4.7-0.3,9.8-0.7,15.3-1.2
			c3.9-0.4,6.2-0.6,7-0.6c1.1,0,2,0.2,2.7,0.7c0.9,0.6,1.3,1.4,1.3,2.6c0,0.9-0.5,2.5-1.6,4.6c-2.2,4.6-5.5,9.6-9.7,14.7
			c6.8,4.2,12.3,8.6,16.6,13.2c0.9,1,1.4,2,1.4,2.9c0,0.7-0.2,1.3-0.7,1.9c-0.5,0.5-1,0.7-1.7,0.7c-0.6,0-1.1-0.2-1.6-0.7
			c-0.1-0.1-0.4-0.5-1.1-1.2C133.7,154,128.6,149.4,122.8,145z M139.3,113.9c0.5,0,1,0.2,1.6,0.7c2.5,1.8,4.3,3.7,5.6,5.8
			c0.4,0.6,0.5,1.1,0.5,1.6c0,0.6-0.2,1-0.6,1.4c-0.4,0.3-0.8,0.5-1.3,0.5c-0.6,0-1.1-0.4-1.6-1.3c-1.4-2.2-2.9-4.1-4.5-5.9
			c-0.6-0.6-0.9-1.1-0.9-1.5C138.2,114.2,138.5,113.9,139.3,113.9z M144.6,109.7c1,0,2.6,1,4.9,3.1c1.9,1.7,2.8,3.1,2.8,4.2
			c0,0.7-0.2,1.2-0.7,1.5c-0.4,0.3-0.8,0.4-1.2,0.4c-0.6,0-1.1-0.4-1.6-1.2c-1.4-2.1-2.9-4-4.5-5.5c-0.6-0.6-0.9-1.1-0.9-1.5
			C143.4,110.1,143.8,109.7,144.6,109.7z"/>
		<path class="st4" d="M174.2,134.7v-10.4c0-0.5,0.1-0.9,0.2-1.2c-4.2,1.6-7.9,2.8-11.3,3.6c-0.7,0.2-1.2,0.2-1.5,0.2
			c-1.2,0-1.8-0.5-1.8-1.6c0-0.6,0.2-1,0.6-1.3c0.2-0.1,1-0.4,2.3-0.8c4.8-1.5,9.5-3.5,14.3-6c2.1-1.1,3.8-2.2,5.1-3.1
			c0.8-0.6,1.5-0.9,2-0.9c0.7,0,1.4,0.3,1.9,1c0.3,0.4,0.5,0.9,0.5,1.5c0,0.9-0.5,1.6-1.5,2.2c-2.2,1.3-4.7,2.6-7.7,4
			c1,0.4,1.5,1.2,1.5,2.4v10.1l1.3-0.1c9.6-0.6,15-0.9,16.3-0.9c2,0,3,0.7,3,2.2c0,1.2-0.5,1.9-1.6,2.2c-0.3,0.1-1,0.1-2.1,0.2
			c-4.7,0.1-10.3,0.4-17,0.8c-0.2,9.5-2.8,16.7-7.5,21.6c-2.5,2.5-4.4,3.8-5.8,3.8c-0.4,0-0.8-0.2-1-0.5c-0.2-0.3-0.4-0.6-0.4-1
			c0-0.6,0.4-1.2,1.2-1.9c3.7-3.2,6.2-7.3,7.6-12.1c0.8-2.8,1.2-6,1.3-9.6c-7.6,0.5-13.8,1.1-18.8,1.9c-0.4,0.1-0.7,0.1-0.9,0.1
			c-1.6,0-2.4-0.7-2.4-2.1c0-1.4,0.7-2.2,2.2-2.4C159,136,165.6,135.3,174.2,134.7z"/>
		<path class="st4" d="M230.5,131.1l0.9-0.1c6.7-0.6,10.5-1,11.2-1c0.5-0.1,1-0.1,1.4-0.1c3.4,0,5.1,1.6,5.1,4.8
			c0,1.9-0.5,5.5-1.6,10.7c-1.4,7.1-2.6,8-4.9,13.4c-1.6,3.8-3.5,5.7-5.6,5.7c-1,0-1.9-0.4-2.9-1.1c-0.8-0.6-2.7-2.2-5.8-4.8
			c-1-0.8-1.5-1.6-1.5-2.2c0-0.3,0.1-0.6,0.3-0.9c0.3-0.4,0.6-0.6,1-0.6c0.5,0,1.3,0.3,2.2,0.9c3.2,2,5.1,3,5.7,3
			c0.7,0,1.4-0.9,2.2-2.6c2.1-4.5,3.2-4.8,4.5-11.6c0.8-4.2,1.2-7,1.2-8.5c0-1-0.5-1.5-1.4-1.5c-0.3,0-0.7,0-1.1,0.1
			c-0.2,0-3,0.3-8.3,0.7c-0.6,0-2.1,0.1-4.3,0.3c-0.8,2.6-7.7,19.2-10.7,21.4c-0.8,0.7-1.5,1-2.1,1c-0.5,0-2.2-0.2-2.5-0.6
			c-0.3-0.4-0.7-0.8-0.7-1.3c0-0.5,0.4-0.9,0.8-1.3c0.1-0.2,0.9-0.9,2.2-2.1c2.2-1.9,4.7-6.5,5.3-8.5c1.2-2.5,1.7-5.1,2.7-8.1
			c-2.9,0.3-5.7,0.5-8.4,0.7c-2.4,0.2-3.9,0.3-4.6,0.4c-0.3,0-0.6,0-0.7,0c-1.7,0-2.5-0.8-2.5-2.3c0-1.1,0.5-1.8,1.6-2.2
			c0.3-0.1,1-0.2,1.9-0.2c1.6-0.1,5.8-0.4,12.6-0.9l1.3-0.1c1.1-5.1,1.8-8.9,2.1-11.4c0.2-1.7,1.1-2.6,2.6-2.6
			c0.8,0,1.4,0.3,1.9,0.8c0.4,0.4,0.6,1,0.6,1.6C232.5,121.4,231.9,125.1,230.5,131.1z"/>
	</g>
	<g>
		<path d="M202.2,202c-0.5,0-1.2,0.4-2.2,1.1c-2.8,2-5.3,3-7.4,3c-2.8,0-4.1-1.2-4.1-3.6c0-2.4,1-5.4,3-8.9c2-3.5,3.8-5.3,5.3-5.3
			c0.7,0,1.3,0.9,1.7,2.7c0.3,1.7,0.9,2.5,1.8,2.5c0.4,0,0.7-0.3,1.1-0.9c0.4-0.6,0.5-1.3,0.5-2.2c0-1.4-0.4-2.7-1.3-4
			c-0.8-1.3-1.8-1.9-3-1.9c-2.5,0-5.3,2.1-8.3,6.2c-3,4.1-4.4,8.1-4.4,11.8c0,2.2,0.6,3.9,1.7,5.2c1.2,1.2,2.8,1.8,4.9,1.8
			c2.5,0,5-0.8,7.5-2.5c2.6-1.7,3.8-3,3.8-4.1C202.9,202.3,202.7,202,202.2,202z"/>
		<path d="M228,205.9c-1.3-0.7-2-2.8-2-6.2c0-1.7,0.4-4.7,1.2-8.9c0.1-0.8,0.2-1.4,0.2-1.8c0-0.9-0.6-1.3-1.7-1.3
			c-0.4,0-0.7-0.2-0.9-0.7c-0.6-1.4-1.5-2.1-2.7-2.1c-3.3,0-6.7,2.2-10,6.5c-3.4,4.3-5,8.4-5,12.1c0,1.5,0.4,2.7,1.2,3.6
			c0.8,0.9,1.8,1.4,2.9,1.4c1.6,0,3.4-0.7,5.4-2c2-1.3,3.9-3.4,5.9-6c0,2.8,0.4,5,1.1,6.5c0.7,1.5,1.6,2.3,2.7,2.3
			c0.6,0,1.2-0.2,1.8-0.7c0.6-0.5,0.9-0.9,0.9-1.3C228.9,206.6,228.6,206.2,228,205.9z M219,200.1c-2.8,3.2-5,4.8-6.5,4.8
			c-1.1,0-1.6-0.8-1.6-2.5c0-2.3,1.3-5.3,3.8-8.8c2.5-3.5,4.7-5.3,6.6-5.3c1.3,0,2,1,2,3.1C223.1,194,221.7,197,219,200.1z"/>
		<path d="M248.3,180.7c0.6,0,1.2-0.7,1.7-2c0.5-1.3,0.7-2.5,0.7-3.5c0-1.3-0.4-2.4-1.3-3.2c-0.9-0.9-2-1.3-3.2-1.3
			c-2.4,0-4.4,1-5.9,2.9c-1.6,2-2.7,5.2-3.4,9.6c-0.2,1.2-0.4,2.2-0.6,2.9c-0.2,0.7-0.6,1.3-1.3,1.9c-0.9,0.7-1.4,1.4-1.4,2
			c0,0.4,0.3,0.8,0.9,1.2c0.6,0.4,0.9,0.8,0.9,1c0,1.5-0.2,3.7-0.6,6.6c-0.7,4.7-1,7.6-1,8.6c0,2.1,0.7,3.2,2.2,3.2
			c0.4,0,0.9-0.1,1.3-0.4c0.4-0.2,0.7-0.5,0.8-0.9c0-0.1-0.1-0.5-0.1-1.1c-0.1-0.6-0.2-1.5-0.2-2.8c0-4.2,0.5-8.9,1.4-14.2
			c0.3-0.1,1.4-0.3,3.5-0.5c2.4-0.2,4-0.5,4.7-0.8c0.7-0.3,1.1-0.8,1.1-1.3c0-0.6-0.3-0.9-1-0.8c-0.7,0-2.9,0-6.6,0
			c-0.9,0-1.3-0.3-1.3-1c0-2.1,0.5-4.7,1.7-8c1.1-3.3,2.5-4.9,4.2-4.9c1.5,0,2.3,1.4,2.3,4.1l-0.2,2.1
			C247.6,180.4,247.8,180.7,248.3,180.7z"/>
		<path d="M263.3,207.1c0.2-0.2,0.5-0.3,0.7-0.5c-0.1,0-0.1,0-0.2,0c-0.2,0-0.4,0-0.6,0c-0.2,0-0.5,0-0.7,0c-1.1,0-2.3-0.1-3.4-0.3
			c-0.1,0-0.2,0-0.2-0.1c0,0,0,0,0,0c-0.2,0-0.4,0-0.6-0.1c-0.2,0-0.5-0.1-0.6-0.2c-0.3,0-0.5-0.1-0.7-0.2c0,0-0.1,0-0.1,0
			c-0.2,0-0.4-0.1-0.6-0.2c-0.1,0-0.2,0-0.3,0c-0.4-0.2-0.9-0.3-1.3-0.5c-0.2-0.1-0.4-0.3-0.6-0.5c-0.7-0.7-1-1.7-1-2.9
			c0-0.6,0.4-1.1,1.1-1.5c3.6-1.9,6.5-3.9,8.7-5.9c2.2-2,3.2-4.1,3.2-6.3c0-1-0.3-1.8-1-2.5c-0.7-0.7-1.6-1.1-2.6-1.1
			c-3.3,0-6.3,1.8-9,5.5c-2.8,3.7-4.1,7.6-4.1,11.7c0,2.4,0.6,4.3,1.9,5.7c1.1,1.2,2.7,1.9,4.6,2c1.3,0.2,2.7,0.3,3.2,0.3
			c0.9,0,12.3-2.1,12.3-3.1C268.1,207.1,265.5,207.2,263.3,207.1z M257,190.5c1.7-1.9,3.1-2.9,4.4-2.9c0.8,0,1.2,0.4,1.2,1.3
			c0,2.2-3,5.1-9.1,8.7C254.2,194.8,255.4,192.4,257,190.5z"/>
	</g>
	<g>
		<path class="st5" d="M130.4,191.9c0.2,0,0.5,0.1,0.9,0.3c1.4,0.7,2.4,1.2,3,1.7c0.4,0.3,0.6,0.6,0.6,1c0,0.2-0.1,0.4-0.2,0.7
			c-0.2,0.3-0.5,0.4-0.8,0.4c-0.3,0-0.6-0.2-1-0.5c-0.8-0.7-1.6-1.4-2.6-2.2c-0.3-0.2-0.4-0.5-0.4-0.7
			C129.8,192.2,130,191.9,130.4,191.9z M135.7,198.3c0.1,0,0.3,0,0.4,0.1c0.3,0.1,0.5,0.4,0.5,0.7c0,0.2-0.1,0.6-0.3,1.1
			c-1,2.4-2.2,4.5-3.5,6.4c-0.3,0.5-0.7,0.7-1.1,0.7c-0.2,0-0.5-0.1-0.7-0.2c-0.3-0.2-0.4-0.5-0.4-0.8c0-0.3,0.2-0.7,0.6-1.3
			c1.8-2.5,3-4.5,3.7-5.9C135,198.5,135.3,198.3,135.7,198.3z M132.1,186.1c0.6,0,1.5,0.5,2.9,1.4c0.5,0.3,0.8,0.6,1,0.7
			c0.3,0.3,0.4,0.5,0.4,0.9c0,0.2-0.1,0.4-0.2,0.6c-0.2,0.3-0.5,0.5-0.9,0.5c-0.3,0-0.7-0.2-1.1-0.6c-0.6-0.5-1.4-1.2-2.4-2
			c-0.3-0.2-0.4-0.5-0.4-0.7C131.4,186.3,131.6,186.1,132.1,186.1z M146.6,191.3v3l4.7-0.3c0.1,0,0.1,0,0.1,0c0.6,0,0.9,0.3,0.9,0.9
			c0,0.6-0.3,0.9-0.9,0.9l-4.8,0.3v3.3l7.2-0.4l0.1,0c0.3,0,0.6,0.1,0.8,0.4c0.1,0.1,0.2,0.3,0.2,0.5c0,0.6-0.3,0.9-0.9,1l-7.4,0.4
			v7.1c0,0.3-0.1,0.5-0.3,0.7c-0.2,0.2-0.4,0.3-0.7,0.3c-0.4,0-0.7-0.1-0.9-0.4c-0.1-0.1-0.2-0.3-0.2-0.6v-6.9l-6.8,0.4
			c-0.1,0-0.1,0-0.1,0c-0.6,0-0.9-0.3-0.9-0.9c0-0.6,0.3-0.9,0.9-0.9l7-0.4v-3.3l-4.7,0.3c0,0-0.1,0-0.2,0c-0.6,0-0.9-0.3-0.9-0.9
			c0-0.5,0.3-0.8,0.9-0.8l4.9-0.3v-3l-5.5,0.4c0,0-0.1,0-0.1,0c-0.6,0-0.9-0.3-0.9-0.9c0-0.6,0.3-0.9,0.8-0.9l7.7-0.6
			c0.6-0.8,1.3-2.3,2.1-4.3c0.2-0.6,0.6-0.9,1.1-0.9c0.2,0,0.4,0,0.6,0.1c0.4,0.2,0.6,0.5,0.6,0.9c0,0.7-0.7,2.1-2.2,4.1l3.6-0.3
			c0,0,0.1,0,0.1,0c0.6,0,0.9,0.3,0.9,0.9c0,0.6-0.3,0.8-0.9,0.9L146.6,191.3z M140.4,184.8c0.4,0,1,0.5,1.8,1.5
			c0.9,1.1,1.3,1.9,1.3,2.4c0,0.3-0.1,0.6-0.4,0.8c-0.2,0.2-0.5,0.2-0.8,0.2c-0.4,0-0.8-0.2-0.9-0.7c-0.4-1-0.8-2-1.5-2.9
			c-0.2-0.3-0.3-0.5-0.3-0.7C139.6,185,139.9,184.8,140.4,184.8z"/>
		<path class="st5" d="M168.7,185.4c3.6,3,7.3,5.3,11.3,7c0.6,0.2,0.8,0.5,0.8,0.6c0,0.2-0.2,0.3-0.6,0.4c-0.9,0.3-1.6,0.4-2,0.4
			c-0.3,0-0.6-0.1-0.9-0.2c-1.8-1-3.7-2.3-5.9-4c-1.4-1.1-2.7-2.2-3.7-3.1c-2.5,2.7-5.4,5-8.8,6.9c-1.6,0.9-2.6,1.3-2.9,1.3
			c-0.2,0-0.4-0.1-0.5-0.3c-0.1-0.1-0.1-0.3-0.1-0.4c0-0.2,0.1-0.4,0.3-0.6c0.1,0,0.4-0.2,1.1-0.6c2.3-1.2,4.6-2.9,6.9-4.9
			c1.3-1.2,2.4-2.4,3.2-3.5c0.3-0.5,0.7-0.7,1-0.7c0.2,0,0.4,0.1,0.6,0.2c0.3,0.2,0.4,0.4,0.4,0.7
			C168.9,184.9,168.8,185.2,168.7,185.4z M161.2,193.7c-0.3-0.1-0.5-0.3-0.5-0.7c0-0.5,0.2-0.7,0.7-0.8l5.2-0.5v-2.6
			c0-0.3,0.1-0.5,0.3-0.7c0.2-0.1,0.4-0.2,0.7-0.2c0.3,0,0.6,0.1,0.8,0.3c0.1,0.2,0.2,0.3,0.2,0.6v2.5l4.1-0.3c0.1,0,0.2,0,0.2,0
			c0.5,0,0.9,0.2,1.2,0.5c0.3,0.3,0.4,0.7,0.4,1.2c0,0.1,0,0.2,0,0.3l-0.7,6.4c-0.1,0.6-0.4,0.9-1,0.9c-0.5,0-0.8-0.2-0.9-0.7
			l-8.8,0.7v6.6c1.3-0.2,2.9-0.7,4.7-1.5c0.3-0.1,0.5-0.2,0.7-0.2c0.3,0,0.5,0.1,0.6,0.3c0.1,0.1,0.1,0.2,0.1,0.4
			c0,0.3-0.2,0.5-0.5,0.7c-1.4,0.8-3.1,1.5-5.1,2.1c-0.6,0.2-1,0.3-1.2,0.3c-0.2,0-0.5-0.1-0.8-0.4c-0.3-0.3-0.5-0.7-0.5-1.3V193.7z
			 M163.2,193.6v1.9l9.2-0.7l0.1-1.3c0,0,0-0.1,0-0.1c0-0.3-0.1-0.5-0.4-0.5l-0.1,0L163.2,193.6z M163.2,196.9v2.1l8.9-0.7l0.2-2
			L163.2,196.9z M170.5,203.5c1.6-1.1,2.9-2.2,4-3.2c0.3-0.3,0.6-0.4,0.9-0.4c0.3,0,0.5,0.1,0.7,0.3c0.2,0.2,0.4,0.5,0.4,0.8
			c0,0.3-0.2,0.6-0.5,0.9c-1.1,0.8-2.4,1.7-3.9,2.5c2.2,1.1,4.5,2,6.8,2.6c0.7,0.2,1.1,0.4,1.1,0.6c0,0.2-0.2,0.3-0.5,0.4
			c-1.1,0.4-1.9,0.5-2.6,0.5c-0.4,0-0.9-0.1-1.5-0.4c-1.9-0.9-4-2.1-6.2-3.6c-2.4-1.7-3.6-2.7-3.6-3.2c0-0.1,0.1-0.3,0.2-0.4
			c0.2-0.2,0.4-0.2,0.6-0.2c0.2,0,0.7,0.3,1.4,0.9C168.3,202.1,169.3,202.8,170.5,203.5z"/>
	</g>
</g>
</svg>
