<?xml version="1.0" encoding="utf-8"?>
<!-- Generator: Adobe Illustrator 24.2.1, SVG Export Plug-In . SVG Version: 6.00 Build 0)  -->
<svg version="1.1" id="レイヤー_1" xmlns="http://www.w3.org/2000/svg" xmlns:xlink="http://www.w3.org/1999/xlink" x="0px"
	 y="0px" viewBox="0 0 893 827" style="enable-background:new 0 0 893 827;" xml:space="preserve">
<style type="text/css">
	.st0{fill:none;stroke:#000000;stroke-width:7;stroke-linecap:round;stroke-miterlimit:10;}
	.st1{opacity:0.8;}
	.st2{fill:#F2E55C;}
	.st3{fill:#FFFFFF;stroke:#000000;stroke-width:7;stroke-linecap:round;stroke-miterlimit:10;}
	.st4{stroke:#000000;stroke-width:2;stroke-miterlimit:10;}
	.st5{stroke:#000000;stroke-miterlimit:10;}
	.st6{fill:#F29438;}
</style>
<path class="st0" d="M839.6,257.4c-7,10-28,26-28,29"/>
<g class="st1">
	<path class="st2" d="M656.7,636.9l81-51.5c2.5,13.5,9,17.6,21,18c28,1,104.1-22.5,108-70c-3-81-22-153-26-234c0-3,26-26,28-29
		c15-21,16.5-26.5,19.5-50.5c2-25-3-49-12-72c3-35.8,1-70.6-5.9-106.3l-9.6,6.3l-1.3-14.2c-3.5,1.5-6.6,4.6-9.2,7.2
		c-19,20-39,37-57,59c-2,1-4,2-6,1c-24-11-50-11-76-11c-2,0-4-1-5-2c-6-18-11-35-19-52c-3-6-8-12-13-14c-14-7-20,14-26,24
		c-1,2,0,3-1,5c-4,7-5,14-8,21c-3,11-4,23-6,35c-1,3-2,5-4,7c-25,25-37,61-32.4,95.2l-2.1,2.6c-3.3-0.2-6.6-0.3-10-0.3
		c-17,0-33.3,2.4-48.5,6.8c-55.9-39.4-163.2-52-227.5-48.8c-147.8,7.3-268,121.3-268,271s106,255,254,255l0.9-1.4
		c24.5,4.2,49,6.4,73.5,8.7c85,4.5,169-1,254-1.5c11-1.1,21-0.1,32,1.8c8,2,15,4.9,22,7.9c13,5.9,24.1,15.9,34.2,26.8
		c1,1-0.6-0.2,0.4,0.8c14.1,14.9,21.8,37.1,31.9,55c5,8,10.1,14.9,17.1,20.9c9,6.9,21.1,11.9,32,7.8c2-1,4-2,5-3
		c11.9-13.1,7.9-30.9,7.7-48c-0.2-19.9-13-52.5-15.8-59.6l0.4,0.6c-12.4-26.8-92.4-70.8-132.4-73.2L656.7,636.9z"/>
</g>
<g>
	<path class="st3" d="M578.9,199.9c-7.6-1-15.3-1.5-23.2-1.5c-6,0-21.8,5.8-33,17"/>
	<g>
		<path d="M265.6,682.4c-23.1,0.7-46.4-1.1-69.2-6.2l-8.5-2c-1.4-0.3-2.8-0.7-4.2-1.1l-4.2-1.2l-4.2-1.2c-1.4-0.4-2.8-0.9-4.2-1.4
			l-8.3-2.9c-2.7-1-5.4-2.2-8.2-3.2l-4.1-1.6l-4-1.8c-2.7-1.2-5.3-2.4-8-3.7l-7.8-4.1c-2.6-1.3-5.1-2.9-7.6-4.4
			c-2.5-1.5-5.1-2.9-7.5-4.6l-7.3-4.9c-2.4-1.7-4.7-3.5-7.1-5.2c-1.2-0.9-2.4-1.7-3.5-2.7l-3.4-2.8l-3.4-2.8
			c-1.1-0.9-2.3-1.9-3.4-2.9l-6.5-6c-0.5-0.5-1.1-1-1.6-1.5l-1.5-1.6l-3.1-3.2l-3.1-3.2c-1-1-2-2.2-3-3.3c-2-2.2-3.9-4.4-5.8-6.7
			c-3.6-4.7-7.4-9.2-10.7-14.1l-2.6-3.6l-1.3-1.8l-1.2-1.9l-4.8-7.5c-0.8-1.2-1.5-2.5-2.2-3.8l-2.2-3.9l-2.2-3.9
			c-0.7-1.3-1.3-2.6-2-4l-4-7.9l-3.6-8.1c-0.6-1.4-1.2-2.7-1.7-4.1l-1.6-4.1l-1.6-4.1c-0.5-1.4-1.1-2.8-1.5-4.2
			c-1.8-5.6-3.8-11.2-5.2-17l-1.2-4.3c-0.4-1.4-0.8-2.9-1.1-4.3l-1.9-8.7c-0.7-2.9-1.1-5.8-1.6-8.7L8.2,472
			c-0.2-1.5-0.5-2.9-0.7-4.4C6.8,461.7,6,455.9,5.7,450c-0.2-2.9-0.5-5.9-0.6-8.8l-0.3-8.9l-0.1-4.4c0-1.5,0-3,0.1-4.4l0.2-8.9
			c0-1.5,0.1-3,0.2-4.4l0.3-4.4l0.3-4.4l0.2-2.2l0.3-2.2c0.7-5.9,1.3-11.8,2.5-17.6c0.5-2.9,1-5.9,1.6-8.8l2-8.7
			c0.3-1.4,0.6-2.9,1-4.3l1.2-4.3c0.8-2.9,1.6-5.7,2.4-8.6l2.8-8.4c0.5-1.4,0.9-2.8,1.5-4.2l1.6-4.1c1.1-2.8,2.2-5.5,3.3-8.3
			l3.7-8.1c0.6-1.3,1.2-2.7,1.9-4l2-4c1.4-2.6,2.7-5.3,4.1-7.9l4.5-7.7c0.8-1.3,1.5-2.6,2.3-3.8l2.4-3.7
			c6.3-10.1,13.6-19.5,21.1-28.7c3.9-4.4,7.7-9,12-13.2l3.1-3.2c1-1.1,2.1-2.1,3.2-3.1l6.5-6.1l1.6-1.5c0.6-0.5,1.1-1,1.7-1.5
			l3.4-2.9l3.4-2.9l1.7-1.4l1.8-1.4l7-5.5l1.8-1.4l1.8-1.3l3.6-2.6l3.6-2.6c0.6-0.4,1.2-0.9,1.8-1.3l1.9-1.2l7.5-4.8
			c0.6-0.4,1.2-0.8,1.9-1.2l1.9-1.1l3.8-2.2l3.9-2.2c0.6-0.4,1.3-0.7,1.9-1.1l2-1l7.9-4.1c0.7-0.3,1.3-0.7,2-1l2-0.9l4-1.8l4-1.8
			l2-0.9l2.1-0.8l8.2-3.3l2.1-0.8l2.1-0.7l4.2-1.5l4.2-1.5l2.1-0.7c0.7-0.2,1.4-0.4,2.1-0.6c5.7-1.7,11.3-3.5,17.1-4.8
			c11.4-3,23.1-5,34.8-6.7c11.7-1.4,23.5-2.3,35.2-2.5c11.7-0.2,23.4,0.1,35.1,0.8c11.7,0.7,23.3,1.7,34.8,3.1
			c23.1,2.9,46.1,7.1,68.6,13.1c11.2,3.1,22.4,6.6,33.3,10.7c10.9,4.1,21.6,8.9,31.8,14.6c10.2,5.7,19.9,12.4,28.4,20.4
			c4.2,4,8.1,8.4,11.5,13.1c3.4,4.7,6.2,9.9,8.3,15.3c-2.5-5.2-5.6-10.1-9.2-14.5c-3.6-4.4-7.7-8.5-12.1-12.2
			c-8.7-7.4-18.6-13.4-28.8-18.4c-20.6-10.1-42.6-16.8-64.9-21.9c-22.3-5.1-45.1-8.5-67.9-10.5c-22.8-2-45.8-2.9-68.5-2
			c-11.4,0.5-22.6,1.7-33.8,3.2c-11.1,1.9-22.3,3.9-33.1,7.1c-5.5,1.4-10.8,3.2-16.2,4.9c-0.7,0.2-1.3,0.4-2,0.7l-2,0.7l-4,1.5
			l-4,1.5l-2,0.7l-2,0.8l-7.8,3.3l-2,0.8l-1.9,0.9l-3.8,1.8l-3.8,1.8l-1.9,0.9c-0.6,0.3-1.2,0.7-1.9,1l-7.5,4l-1.9,1
			c-0.6,0.3-1.2,0.7-1.8,1.1l-3.6,2.1l-3.6,2.1l-1.8,1.1c-0.6,0.4-1.2,0.8-1.8,1.1l-7.1,4.6l-1.8,1.2c-0.6,0.4-1.1,0.8-1.7,1.2
			l-3.4,2.5l-3.4,2.5l-1.7,1.2l-1.7,1.3l-6.6,5.2l-1.7,1.3l-1.6,1.4l-3.2,2.8l-3.2,2.8c-0.5,0.5-1.1,0.9-1.6,1.4l-1.5,1.5l-6.1,5.8
			c-1,0.9-2,2-3,3l-2.9,3c-4,4-7.6,8.3-11.3,12.5c-7.1,8.7-14,17.6-19.9,27.1l-2.3,3.5c-0.8,1.2-1.4,2.4-2.2,3.6l-4.2,7.3
			c-1.4,2.5-2.6,5-3.9,7.5l-1.9,3.7c-0.6,1.2-1.2,2.5-1.8,3.8l-3.5,7.7c-1.1,2.6-2.1,5.2-3.1,7.8l-1.6,3.9c-0.5,1.3-0.9,2.7-1.4,4
			l-2.7,8c-0.8,2.7-1.6,5.4-2.4,8.1l-1.2,4c-0.4,1.3-0.7,2.7-1,4.1l-1.9,8.2c-0.6,2.7-1,5.5-1.6,8.3c-1.1,5.5-1.7,11.1-2.5,16.7
			l-0.3,2.1l-0.2,2.1l-0.3,4.2l-0.3,4.2c-0.1,1.4-0.3,2.8-0.3,4.2l-0.3,8.4c0,1.4-0.1,2.8-0.1,4.2l0.1,4.2l0.1,8.5
			c0.1,2.8,0.3,5.6,0.5,8.5c0.2,5.6,1,11.2,1.5,16.9c0.1,1.4,0.4,2.8,0.6,4.2l0.6,4.2c0.5,2.8,0.8,5.6,1.4,8.3l1.7,8.3
			c0.3,1.4,0.6,2.8,0.9,4.1l1,4.1c1.2,5.5,3,10.9,4.6,16.3c0.4,1.4,0.9,2.7,1.3,4l1.4,4l1.4,4c0.5,1.3,1,2.6,1.6,3.9l3.2,7.8
			l3.6,7.7c0.6,1.3,1.2,2.6,1.8,3.8l2,3.7l2,3.7c0.7,1.2,1.3,2.5,2,3.7l4.4,7.3l1.1,1.8l1.2,1.8l2.4,3.5c3,4.8,6.6,9.2,9.9,13.7
			l5.4,6.5c0.9,1.1,1.8,2.2,2.7,3.2l2.9,3.1l2.9,3.1l1.4,1.6c0.5,0.5,1,1,1.5,1.5l6.1,6c1,1,2.1,1.9,3.1,2.9l3.2,2.8l3.2,2.8
			c1.1,0.9,2.2,1.8,3.3,2.7c8.7,7.3,18.2,13.6,27.9,19.5l7.4,4.3c2.5,1.4,5.1,2.6,7.6,4l3.8,2l3.9,1.8c2.6,1.2,5.2,2.4,7.8,3.5
			l8,3.1c1.3,0.5,2.6,1.1,4,1.5l4.1,1.4l4.1,1.4c1.4,0.4,2.7,1,4.1,1.3l8.3,2.4c2.7,0.9,5.6,1.4,8.3,2.1l4.2,1
			c1.4,0.3,2.8,0.7,4.2,0.9c5.6,1,11.3,2.2,17,2.9C242.6,681,254.1,681.7,265.6,682.4z"/>
	</g>
	<path class="st0" d="M244.6,587.4c11,11,44.9,23.5,61.9,25.4c39,4.8,68.7,5.3,107.7,7.1c22,0.9,51.4,0,73.4-1.1
		c47-1.3,93-0.5,140,5.2c40,2.5,108,49.5,117,57.5c33,25,43,62.3,43,69v8c0.2,17.1-7,34.6-18.9,47.7c-1,1-3,2-5,3
		c-11,4.1-23-0.9-32-7.8c-7-6-12.1-12.9-17.1-20.9c-10.1-17.9-17.8-40.1-31.9-55c-1-1,0.6,0.2-0.4-0.8
		c-10.1-10.9-21.1-20.9-34.2-26.8c-7-3-14-5.9-22-7.9c-11-1.9-21-2.9-32-1.8c-85,0.5-169,6-254,1.5c-31-2.8-62-5.6-93.1-12.5
		c-19-4.9-37.1-10.8-54.1-20.7c-16.1-9.9-32.1-18.8-44.2-32.7"/>
	<path class="st0" d="M708.6,572.4c2.5,13.5,9,17.6,21,18c28,1,104.1-22.5,108-70c-3-81-22-153-26-234c0-3,26-26,28-29
		c15-21,16.5-26.5,19.5-50.5c2-25-3-49-12-72c3-35.8,1-70.6-5.9-106.3l-9.6,6.3l-1.3-14.2c-3.5,1.5-6.6,4.6-9.2,7.2
		c-19,20-39,37-57,59c-2,1-4,2-6,1c-24-11-50-11-76-11c-2,0-4-1-5-2c-6-18-11-35-19-52c-3-6-8-12-13-14c-14-7-20,14-26,24
		c-1,2,0,3-1,5c-4,7-5,14-8,21c-3,11-4,23-6,35c-1,3-2,5-4,7c-25,25-37,61-32.4,95.2"/>
</g>
<g>
	<path class="st4" d="M165.1,395.2c-1.9,0.4-5.3,0.5-10.2,0.1c-9.9-0.8-19.2-3.1-27.9-7c-3.2-1.4-5.1-3.7-5.7-6.7
		c-0.4-1.7-0.2-3.2,0.5-4.7c1-2,2.5-3.2,4.3-3.6c1.6-0.4,3.8,0.2,6.7,1.6c9.1,4.6,19.4,8.2,30.9,10.8c3,0.7,4.7,2,5.1,4
		C169.5,392.7,168.2,394.5,165.1,395.2z M251.2,359.2c3.5,0,5.3,1.7,5.3,5.1c0,3-2.9,9.1-8.8,18.3c-17.6,27.4-42.4,52.9-74.3,69
		c-14,7.1-22.6,10.7-25.8,10.7c-2.8,0-4.8-1.2-6-3.7c-0.6-1.3-0.9-2.6-0.9-3.9c0-2.6,1.1-4.6,3.3-5.9c0.4-0.3,3.9-1.7,10.5-4.3
		c19.9-7.9,42.1-24.9,58.9-39.7c14.6-12.8,22.6-24.9,31.5-40.6C246.7,360.9,248.8,359.2,251.2,359.2z M169.2,355
		c-1.4,0.4-3.6,0.6-6.5,0.4c-13-0.8-23.1-2.9-30.3-6.4c-3.4-1.7-5.4-3.7-6.2-6.2c-0.5-1.9-0.4-3.7,0.5-5.5c0.8-1.7,2.1-2.8,3.9-3.4
		c1.8-0.6,4.3-0.2,7.3,1.2c9.4,4.5,19.3,7.8,29.8,10.2c2.9,0.7,4.5,1.9,5,3.6C173.6,352,172.4,354,169.2,355z"/>
	<path class="st4" d="M333.7,406.9c-17.3,18.4-35.8,33.2-55.5,44.7c-3.8,2.2-6.4,3.4-7.8,3.4c-1.8,0-3.2-0.8-4.1-2.3
		c-0.6-0.9-0.9-1.8-0.9-2.8c0-1.5,0.7-2.8,2.1-4.1c0.4-0.4,2.4-1.7,6.1-4c16.6-10.3,33-24.4,49.1-42.1
		c14.2-15.7,24.9-30.8,32.1-45.4c1.8-3.7,2.7-6,2.7-7s-0.7-1.5-2.1-1.5c-0.6,0-1.9,0.1-4.1,0.4c-7.9,1-19.3,2.1-34.2,3.2
		c-10.9,0.8-18.6,1.5-22.9,1.8c-0.9,0.1-1.6,0.1-2.2,0.1c-4.7,0-7-2.1-7-6.3c0-3.5,1.6-5.7,4.9-6.5c0.9-0.2,3.3-0.5,7.1-0.7
		c13.7-0.8,28.7-2.1,44.8-3.6c11.4-1.1,18.2-1.6,20.3-1.6c3.3,0,5.9,0.7,8,2.2c2.5,1.7,3.7,4.2,3.7,7.5c0,2.7-1.5,7.2-4.5,13.5
		c-6.5,13.6-16,28-28.4,43.1c19.9,12.2,36,25.1,48.4,38.6c2.7,2.9,4,5.7,4,8.5c0,2.1-0.7,3.9-2.2,5.4c-1.4,1.4-3.1,2.2-5,2.2
		c-1.7,0-3.3-0.7-4.7-2c-0.2-0.2-1.3-1.4-3.1-3.5C365.7,433.4,350.8,419.7,333.7,406.9z M382,315.9c1.5,0,3.1,0.7,4.8,2
		c7.2,5.1,12.7,10.8,16.4,16.9c1,1.7,1.6,3.2,1.6,4.6c0,1.6-0.6,3-1.8,4.1c-1,0.9-2.3,1.4-3.7,1.4c-1.6,0-3.2-1.3-4.8-3.9
		c-4-6.4-8.3-12.1-13.2-17.1c-1.7-1.7-2.5-3.3-2.5-4.5C378.7,317.1,379.8,315.9,382,315.9z M397.4,303.8c2.8,0,7.6,3,14.2,9.1
		c5.5,5.1,8.3,9.2,8.3,12.3c0,1.9-0.6,3.4-1.9,4.4c-1.1,0.8-2.2,1.3-3.4,1.3c-1.6,0-3.2-1.2-4.8-3.5c-4.2-6.2-8.6-11.6-13.2-16
		c-1.7-1.7-2.5-3.1-2.5-4.3C394,304.9,395.1,303.8,397.4,303.8z"/>
	<path class="st4" d="M484,376.8v-30.5c0-1.4,0.2-2.6,0.5-3.5c-12.1,4.5-23.2,8.1-33,10.6c-2,0.5-3.4,0.7-4.3,0.7
		c-3.4,0-5.1-1.6-5.1-4.7c0-1.6,0.6-2.9,1.8-3.7c0.5-0.4,2.8-1.2,6.8-2.4c14-4.4,27.9-10.2,41.7-17.7c6-3.3,11-6.3,14.9-9.1
		c2.4-1.7,4.3-2.6,5.8-2.6c2.1,0,4,1,5.6,2.9c1,1.3,1.5,2.7,1.5,4.4c0,2.5-1.5,4.7-4.4,6.5c-6.3,3.9-13.8,7.7-22.4,11.6
		c2.8,1,4.3,3.4,4.3,7.1v29.6l3.8-0.3c28-1.7,43.9-2.5,47.8-2.5c5.8,0,8.7,2.2,8.7,6.5c0,3.5-1.5,5.7-4.5,6.5
		c-0.8,0.2-2.8,0.4-6.1,0.5c-13.7,0.4-30.2,1.2-49.7,2.4c-0.7,27.8-8,48.8-22.1,63.1c-7.3,7.4-12.9,11.1-16.9,11.1
		c-1.3,0-2.3-0.5-3.1-1.5c-0.7-0.9-1-1.9-1-2.9c0-1.7,1.1-3.5,3.4-5.5c10.8-9.5,18.2-21.2,22.2-35.2c2.3-8.1,3.5-17.5,3.8-28.2
		c-22.1,1.4-40.4,3.3-55,5.4c-1.2,0.2-2.1,0.3-2.7,0.3c-4.6,0-6.9-2-6.9-6.1c0-4.1,2.2-6.5,6.5-7.1
		C439.5,380.6,458.8,378.7,484,376.8z"/>
	<path class="st4" d="M648.7,366.3l2.6-0.3c19.6-1.8,30.5-2.8,32.8-3c1.5-0.2,2.9-0.3,4.1-0.3c10,0,14.9,4.7,14.9,14.1
		c0,5.7-1.5,16.1-4.5,31.4c-4.1,20.7-7.6,23.4-14.3,39.1c-4.7,11.1-10.1,16.6-16.3,16.6c-2.8,0-5.6-1.1-8.3-3.2
		c-2.2-1.7-7.9-6.4-17-14.1c-2.8-2.4-4.3-4.6-4.3-6.4c0-0.8,0.3-1.6,0.8-2.6c0.7-1.2,1.7-1.8,3-1.8c1.5,0,3.7,0.9,6.4,2.7
		c9.3,5.9,14.9,8.9,16.8,8.9c2,0,4.1-2.5,6.4-7.5c6.1-13.1,9.3-14.1,13.2-33.9c2.4-12.1,3.6-20.5,3.6-25c0-3-1.3-4.5-4-4.5
		c-0.9,0-1.9,0.1-3.2,0.2c-0.7,0.1-8.8,0.8-24.2,1.9c-1.6,0.1-6.2,0.4-12.6,1c-2.5,7.6-22.4,56.1-31.2,62.5
		c-2.3,1.9-4.4,2.9-6.2,2.9c-1.5,0-6.4-0.6-7.3-1.7c-0.9-1.2-1.9-2.4-1.9-3.7c0-1.3,1.1-2.5,2.2-3.8c0.4-0.5,2.6-2.6,6.4-6.3
		c6.3-5.5,13.7-19,15.6-24.8c3.5-7.3,4.9-14.9,7.8-23.7c-8.6,0.8-16.8,1.4-24.6,2c-7,0.5-11.5,0.9-13.4,1.1
		c-0.9,0.1-1.6,0.1-2.1,0.1c-4.8,0-7.2-2.2-7.2-6.7c0-3.3,1.5-5.4,4.5-6.4c1-0.3,2.9-0.5,5.7-0.7c4.7-0.3,17-1.2,36.8-2.7l3.7-0.3
		c3.2-14.8,5.3-26,6.1-33.3c0.6-5,3.1-7.5,7.6-7.5c2.3,0,4.2,0.8,5.6,2.3c1.1,1.3,1.7,2.9,1.7,4.8
		C654.4,338,652.5,348.9,648.7,366.3z"/>
</g>
<g>
	<path d="M565.9,573.6c-1.4,0-3.5,1-6.5,3.1c-8.3,5.8-15.5,8.6-21.7,8.6c-8.1,0-12.1-3.5-12.1-10.7c0-7.1,3-15.8,8.9-26.1
		c5.9-10.3,11.1-15.5,15.4-15.5c2.1,0,3.8,2.6,4.9,7.9c1,4.9,2.7,7.3,5.1,7.3c1.1,0,2.2-0.9,3.2-2.7c1.1-1.8,1.6-3.9,1.6-6.4
		c0-4.1-1.2-8-3.7-11.6c-2.4-3.7-5.4-5.5-8.7-5.5c-7.4,0-15.5,6-24.1,18.1c-8.6,12.1-13,23.6-13,34.5c0,6.5,1.7,11.5,5,15.1
		c3.4,3.6,8.2,5.4,14.4,5.4c7.2,0,14.5-2.4,22-7.2c7.5-4.8,11.2-8.8,11.2-12C568,574.4,567.3,573.6,565.9,573.6z"/>
	<path d="M641.2,584.9c-3.8-2-5.8-8.1-5.8-18.2c0-5.1,1.1-13.7,3.4-26.1c0.4-2.3,0.6-4,0.6-5.3c0-2.6-1.7-3.9-5-3.9
		c-1.2,0-2-0.7-2.6-2c-1.7-4-4.3-6-7.8-6c-9.7,0-19.4,6.3-29.3,19c-9.8,12.7-14.7,24.5-14.7,35.5c0,4.3,1.2,7.8,3.5,10.5
		c2.3,2.7,5.1,4.1,8.3,4.1c4.8,0,10-2,15.7-5.9c5.7-3.9,11.5-9.8,17.4-17.7c0,8.2,1,14.5,3.1,18.9c2.1,4.4,4.7,6.6,8,6.6
		c1.7,0,3.4-0.7,5.2-2c1.8-1.3,2.7-2.6,2.7-3.9C644,587.1,643.1,585.9,641.2,584.9z M614.9,568.2c-8.1,9.3-14.5,13.9-19.1,13.9
		c-3.2,0-4.8-2.4-4.8-7.2c0-6.8,3.7-15.4,11-25.7c7.3-10.3,13.7-15.5,19.2-15.5c3.9,0,5.9,3,5.9,9
		C627.1,550.4,623,558.9,614.9,568.2z"/>
	<path d="M700.5,511.2c1.8,0,3.5-1.9,4.9-5.8c1.4-3.9,2.2-7.3,2.2-10.4c0-3.8-1.3-6.9-3.9-9.4c-2.6-2.5-5.7-3.8-9.5-3.8
		c-7,0-12.8,2.9-17.3,8.6c-4.5,5.7-7.9,15.1-10,28c-0.6,3.6-1.2,6.3-1.7,8.3c-0.5,2-1.8,3.8-3.9,5.5c-2.7,2.1-4.1,4-4.1,5.8
		c0,1.1,0.9,2.3,2.7,3.4c1.8,1.2,2.6,2.2,2.6,2.9c0,4.4-0.6,10.8-1.8,19.3c-2,13.8-2.9,22.2-2.9,25.2c0,6.2,2.1,9.3,6.4,9.3
		c1.3,0,2.6-0.4,3.9-1.1c1.3-0.7,2.1-1.6,2.4-2.6c0-0.4-0.1-1.4-0.4-3.1c-0.3-1.8-0.5-4.4-0.5-8.1c0-12.2,1.4-26,4.2-41.6
		c0.8-0.4,4.2-0.9,10.3-1.6c7.1-0.7,11.7-1.5,13.8-2.4c2.1-0.9,3.2-2.2,3.2-3.9c0-1.7-1-2.5-2.9-2.4c-1.9,0.1-8.4,0.1-19.3,0.1
		c-2.5,0-3.8-1-3.8-2.9c0-6,1.6-13.8,4.8-23.4c3.2-9.6,7.3-14.4,12.2-14.4c4.5,0,6.8,4,6.8,12.1l-0.4,6.1
		C698.5,510.6,699.1,511.2,700.5,511.2z"/>
	<path d="M744.5,588.6c0.7-0.5,1.4-1,2.1-1.5c-0.2,0-0.3,0-0.5-0.1c-0.5,0.1-1.1,0.1-1.7,0.1c-0.7,0-1.4-0.1-2-0.1
		c-3.3-0.1-6.6-0.3-9.9-0.8c-0.2,0-0.5-0.1-0.7-0.1c0,0,0,0-0.1,0c-0.6,0-1.1-0.1-1.6-0.3c-0.7-0.1-1.3-0.2-1.8-0.5
		c-0.7-0.1-1.4-0.3-1.9-0.6c-0.1,0-0.3-0.1-0.4-0.1c-0.6-0.1-1.2-0.3-1.7-0.5c-0.3,0-0.5-0.1-0.8-0.1c-1.3-0.5-2.6-1-3.9-1.5
		c-0.6-0.4-1.2-0.8-1.6-1.3c-2-2.1-3-4.9-3-8.3c0-1.8,1.1-3.3,3.3-4.4c10.6-5.7,19-11.5,25.3-17.4c6.3-5.9,9.5-12.1,9.5-18.5
		c0-2.9-1-5.3-3-7.4c-2-2-4.5-3.1-7.7-3.1c-9.6,0-18.4,5.4-26.4,16.2c-8.1,10.8-12.1,22.1-12.1,34.1c0,7.1,1.8,12.6,5.5,16.6
		c3.3,3.5,7.8,5.5,13.5,5.9c3.7,0.7,7.9,1,9.3,1c2.8,0,36-6.2,36-9C758.4,588.4,750.9,588.9,744.5,588.6z M726.2,540
		c4.8-5.6,9.2-8.5,13-8.5c2.3,0,3.4,1.3,3.4,3.8c0,6.4-8.9,14.9-26.6,25.4C718,552.5,721.4,545.7,726.2,540z"/>
</g>
<g>
	<path class="st5" d="M356.1,544.1c0.6,0,1.4,0.3,2.5,0.8c4.1,1.9,7,3.6,8.8,5c1.1,0.9,1.7,1.9,1.7,3c0,0.6-0.2,1.3-0.6,1.9
		c-0.6,0.8-1.4,1.2-2.5,1.2c-0.9,0-1.9-0.5-2.9-1.4c-2.3-2.1-4.8-4.2-7.6-6.3c-0.9-0.6-1.3-1.4-1.3-2.2
		C354.1,544.8,354.8,544.1,356.1,544.1z M371.3,562.7c0.3,0,0.7,0.1,1.2,0.3c0.9,0.4,1.3,1.1,1.3,2c0,0.6-0.3,1.7-1,3.2
		c-3,7-6.4,13.3-10.3,18.7c-1,1.3-2,2-3.2,2c-0.7,0-1.4-0.2-2-0.7c-0.8-0.6-1.2-1.3-1.2-2.3c0-0.9,0.6-2.2,1.8-3.9
		c5.2-7.3,8.8-13.1,10.9-17.3C369.6,563.4,370.4,562.7,371.3,562.7z M360.9,527.1c1.6,0,4.5,1.3,8.5,4c1.5,1,2.4,1.7,2.9,2.1
		c0.8,0.8,1.1,1.6,1.1,2.5c0,0.6-0.2,1.2-0.6,1.8c-0.6,0.9-1.4,1.3-2.5,1.3c-1,0-2-0.5-3.2-1.7c-1.6-1.6-4-3.5-7.1-6
		c-0.8-0.6-1.2-1.4-1.2-2.2C358.9,527.7,359.6,527.1,360.9,527.1z M403.3,542.3v8.8l13.7-1c0.2,0,0.3,0,0.4,0c1.8,0,2.7,0.8,2.7,2.5
		c0,1.7-0.9,2.6-2.7,2.7l-14.2,1v9.5l21-1.3l0.4,0c1-0.1,1.7,0.3,2.3,1.1c0.3,0.4,0.5,1,0.5,1.6c0,1.8-0.8,2.7-2.5,2.8l-21.6,1.3
		v20.7c0,0.8-0.3,1.5-0.8,2c-0.5,0.5-1.2,0.8-2.1,0.8c-1.1,0-1.9-0.4-2.5-1.2c-0.3-0.4-0.5-1-0.5-1.6v-20.3l-19.9,1.2
		c-0.2,0-0.3,0-0.4,0c-1.8,0-2.7-0.9-2.7-2.6c0-1.7,0.8-2.6,2.5-2.7l20.5-1.3v-9.5l-13.7,0.9c-0.1,0-0.3,0-0.5,0
		c-1.7,0-2.6-0.9-2.6-2.7c0-1.5,0.9-2.3,2.6-2.5l14.3-1v-8.7l-16,1.1c-0.1,0-0.2,0-0.4,0c-1.8,0-2.7-0.8-2.7-2.5
		c0-1.6,0.8-2.5,2.5-2.6l22.5-1.6c1.7-2.5,3.7-6.7,6-12.6c0.7-1.8,1.8-2.7,3.1-2.7c0.5,0,1.1,0.1,1.6,0.4c1.2,0.5,1.7,1.4,1.7,2.6
		c0,2-2.2,6-6.6,11.9l10.5-0.8c0,0,0.2,0,0.4,0c1.7,0,2.6,0.9,2.6,2.6c0,1.6-0.8,2.5-2.5,2.6L403.3,542.3z M385.1,523.3
		c1.1,0,2.8,1.4,5.2,4.3c2.6,3.2,3.9,5.5,3.9,6.9c0,0.9-0.4,1.7-1.2,2.2c-0.7,0.5-1.4,0.7-2.2,0.7c-1.3,0-2.2-0.6-2.7-1.9
		c-1-3-2.5-5.8-4.3-8.4c-0.5-0.8-0.8-1.4-0.8-2C383,523.9,383.7,523.3,385.1,523.3z"/>
	<path class="st5" d="M467.9,525.1c10.4,8.7,21.5,15.5,33.1,20.4c1.6,0.7,2.5,1.3,2.5,1.9c0,0.5-0.6,0.9-1.7,1.2
		c-2.7,0.8-4.7,1.2-6,1.2c-0.9,0-1.7-0.2-2.5-0.7c-5.1-2.8-10.9-6.7-17.2-11.7c-4.2-3.3-7.9-6.3-10.9-9.1
		c-7.3,7.9-15.9,14.6-25.8,20.2c-4.7,2.6-7.5,3.9-8.5,3.9c-0.7,0-1.2-0.3-1.5-0.9c-0.2-0.4-0.4-0.8-0.4-1.2c0-0.6,0.3-1.2,0.9-1.7
		c0.2-0.1,1.2-0.7,3.1-1.7c6.8-3.5,13.5-8.3,20.2-14.4c3.8-3.5,6.9-6.9,9.3-10.2c1-1.4,2-2.1,3-2.1c0.6,0,1.2,0.2,1.8,0.5
		c0.8,0.5,1.2,1.1,1.2,2.1C468.6,523.7,468.4,524.4,467.9,525.1z M446,549.4c-0.9-0.3-1.4-1-1.4-2c0-1.4,0.7-2.1,2.1-2.2l15.3-1.3
		v-7.7c0-0.8,0.3-1.5,0.9-2c0.5-0.4,1.2-0.6,2-0.6c1,0,1.8,0.3,2.3,1c0.3,0.5,0.5,1,0.5,1.6v7.2l12-1c0.3,0,0.5,0,0.6,0
		c1.4,0,2.5,0.4,3.4,1.3c0.8,0.9,1.2,2.1,1.2,3.5c0,0.2,0,0.5-0.1,0.9l-2.1,18.6c-0.2,1.8-1.1,2.7-2.8,2.7c-1.5,0-2.3-0.7-2.6-2.1
		l-25.8,2.1v19.3c3.8-0.7,8.4-2.2,13.8-4.5c0.8-0.3,1.4-0.5,1.9-0.5c0.8,0,1.4,0.3,1.9,1c0.2,0.3,0.3,0.7,0.3,1
		c0,0.8-0.5,1.5-1.5,2.1c-4.1,2.2-9,4.3-15,6.3c-1.7,0.6-2.9,0.8-3.5,0.8c-0.7,0-1.5-0.4-2.3-1.3c-0.9-0.9-1.3-2.1-1.3-3.7V549.4z
		 M451.7,549.1v5.4l26.9-2.1l0.3-3.7c0-0.1,0-0.3,0-0.4c0-1-0.4-1.5-1.2-1.4l-0.3,0L451.7,549.1z M451.7,558.7v6.1l26.1-2l0.5-6
		L451.7,558.7z M473.1,577.9c4.6-3.3,8.5-6.4,11.8-9.4c0.9-0.8,1.7-1.2,2.6-1.2c0.8,0,1.4,0.3,2,0.9c0.7,0.7,1,1.5,1,2.3
		c0,0.9-0.5,1.8-1.6,2.5c-3.2,2.4-7,4.8-11.4,7.2c6.4,3.2,13,5.8,19.9,7.7c2.1,0.6,3.2,1.2,3.2,1.8c0,0.5-0.5,0.9-1.5,1.2
		c-3.2,1-5.7,1.6-7.5,1.6c-1.3,0-2.7-0.4-4.3-1.1c-5.6-2.6-11.7-6.1-18.2-10.5c-7.1-4.9-10.6-8-10.6-9.3c0-0.4,0.2-0.8,0.6-1.2
		c0.5-0.5,1.1-0.7,1.7-0.7s2,0.8,4,2.5C466.9,574,469.7,575.9,473.1,577.9z"/>
</g>
<path class="st0" d="M839.6,257.4c-7,10-28,26-28,29"/>
<g class="st1">
	<path class="st6" d="M656.7,636.9l81-51.5c2.5,13.5,9,17.6,21,18c28,1,104.1-22.5,108-70c-3-81-22-153-26-234c0-3,26-26,28-29
		c15-21,16.5-26.5,19.5-50.5c2-25-3-49-12-72c3-35.8,1-70.6-5.9-106.3l-9.6,6.3l-1.3-14.2c-3.5,1.5-6.6,4.6-9.2,7.2
		c-19,20-39,37-57,59c-2,1-4,2-6,1c-24-11-50-11-76-11c-2,0-4-1-5-2c-6-18-11-35-19-52c-3-6-8-12-13-14c-14-7-20,14-26,24
		c-1,2,0,3-1,5c-4,7-5,14-8,21c-3,11-4,23-6,35c-1,3-2,5-4,7c-25,25-37,61-32.4,95.2l-2.1,2.6c-3.3-0.2-6.6-0.3-10-0.3
		c-17,0-33.3,2.4-48.5,6.8c-55.9-39.4-163.2-52-227.5-48.8c-147.8,7.3-268,121.3-268,271s106,255,254,255l0.9-1.4
		c24.5,4.2,49,6.4,73.5,8.7c85,4.5,169-1,254-1.5c11-1.1,21-0.1,32,1.8c8,2,15,4.9,22,7.9c13,5.9,24.1,15.9,34.2,26.8
		c1,1-0.6-0.2,0.4,0.8c14.1,14.9,21.8,37.1,31.9,55c5,8,10.1,14.9,17.1,20.9c9,6.9,21.1,11.9,32,7.8c2-1,4-2,5-3
		c11.9-13.1,7.9-30.9,7.7-48c-0.2-19.9-13-52.5-15.8-59.6l0.4,0.6c-12.4-26.8-92.4-70.8-132.4-73.2L656.7,636.9z"/>
</g>
<g>
	<path class="st3" d="M578.9,199.9c-7.6-1-15.3-1.5-23.2-1.5c-6,0-21.8,5.8-33,17"/>
	<g>
		<path d="M265.6,682.4c-23.1,0.7-46.4-1.1-69.2-6.2l-8.5-2c-1.4-0.3-2.8-0.7-4.2-1.1l-4.2-1.2l-4.2-1.2c-1.4-0.4-2.8-0.9-4.2-1.4
			l-8.3-2.9c-2.7-1-5.4-2.2-8.2-3.2l-4.1-1.6l-4-1.8c-2.7-1.2-5.3-2.4-8-3.7l-7.8-4.1c-2.6-1.3-5.1-2.9-7.6-4.4
			c-2.5-1.5-5.1-2.9-7.5-4.6l-7.3-4.9c-2.4-1.7-4.7-3.5-7.1-5.2c-1.2-0.9-2.4-1.7-3.5-2.7l-3.4-2.8l-3.4-2.8
			c-1.1-0.9-2.3-1.9-3.4-2.9l-6.5-6c-0.5-0.5-1.1-1-1.6-1.5l-1.5-1.6l-3.1-3.2l-3.1-3.2c-1-1-2-2.2-3-3.3c-2-2.2-3.9-4.4-5.8-6.7
			c-3.6-4.7-7.4-9.2-10.7-14.1l-2.6-3.6l-1.3-1.8l-1.2-1.9l-4.8-7.5c-0.8-1.2-1.5-2.5-2.2-3.8l-2.2-3.9l-2.2-3.9
			c-0.7-1.3-1.3-2.6-2-4l-4-7.9l-3.6-8.1c-0.6-1.4-1.2-2.7-1.7-4.1l-1.6-4.1l-1.6-4.1c-0.5-1.4-1.1-2.8-1.5-4.2
			c-1.8-5.6-3.8-11.2-5.2-17l-1.2-4.3c-0.4-1.4-0.8-2.9-1.1-4.3l-1.9-8.7c-0.7-2.9-1.1-5.8-1.6-8.7L8.2,472
			c-0.2-1.5-0.5-2.9-0.7-4.4C6.8,461.7,6,455.9,5.7,450c-0.2-2.9-0.5-5.9-0.6-8.8l-0.3-8.9l-0.1-4.4c0-1.5,0-3,0.1-4.4l0.2-8.9
			c0-1.5,0.1-3,0.2-4.4l0.3-4.4l0.3-4.4l0.2-2.2l0.3-2.2c0.7-5.9,1.3-11.8,2.5-17.6c0.5-2.9,1-5.9,1.6-8.8l2-8.7
			c0.3-1.4,0.6-2.9,1-4.3l1.2-4.3c0.8-2.9,1.6-5.7,2.4-8.6l2.8-8.4c0.5-1.4,0.9-2.8,1.5-4.2l1.6-4.1c1.1-2.8,2.2-5.5,3.3-8.3
			l3.7-8.1c0.6-1.3,1.2-2.7,1.9-4l2-4c1.4-2.6,2.7-5.3,4.1-7.9l4.5-7.7c0.8-1.3,1.5-2.6,2.3-3.8l2.4-3.7
			c6.3-10.1,13.6-19.5,21.1-28.7c3.9-4.4,7.7-9,12-13.2l3.1-3.2c1-1.1,2.1-2.1,3.2-3.1l6.5-6.1l1.6-1.5c0.6-0.5,1.1-1,1.7-1.5
			l3.4-2.9l3.4-2.9l1.7-1.4l1.8-1.4l7-5.5l1.8-1.4l1.8-1.3l3.6-2.6l3.6-2.6c0.6-0.4,1.2-0.9,1.8-1.3l1.9-1.2l7.5-4.8
			c0.6-0.4,1.2-0.8,1.9-1.2l1.9-1.1l3.8-2.2l3.9-2.2c0.6-0.4,1.3-0.7,1.9-1.1l2-1l7.9-4.1c0.7-0.3,1.3-0.7,2-1l2-0.9l4-1.8l4-1.8
			l2-0.9l2.1-0.8l8.2-3.3l2.1-0.8l2.1-0.7l4.2-1.5l4.2-1.5l2.1-0.7c0.7-0.2,1.4-0.4,2.1-0.6c5.7-1.7,11.3-3.5,17.1-4.8
			c11.4-3,23.1-5,34.8-6.7c11.7-1.4,23.5-2.3,35.2-2.5c11.7-0.2,23.4,0.1,35.1,0.8c11.7,0.7,23.3,1.7,34.8,3.1
			c23.1,2.9,46.1,7.1,68.6,13.1c11.2,3.1,22.4,6.6,33.3,10.7c10.9,4.1,21.6,8.9,31.8,14.6c10.2,5.7,19.9,12.4,28.4,20.4
			c4.2,4,8.1,8.4,11.5,13.1c3.4,4.7,6.2,9.9,8.3,15.3c-2.5-5.2-5.6-10.1-9.2-14.5c-3.6-4.4-7.7-8.5-12.1-12.2
			c-8.7-7.4-18.6-13.4-28.8-18.4c-20.6-10.1-42.6-16.8-64.9-21.9c-22.3-5.1-45.1-8.5-67.9-10.5c-22.8-2-45.8-2.9-68.5-2
			c-11.4,0.5-22.6,1.7-33.8,3.2c-11.1,1.9-22.3,3.9-33.1,7.1c-5.5,1.4-10.8,3.2-16.2,4.9c-0.7,0.2-1.3,0.4-2,0.7l-2,0.7l-4,1.5
			l-4,1.5l-2,0.7l-2,0.8l-7.8,3.3l-2,0.8l-1.9,0.9l-3.8,1.8l-3.8,1.8l-1.9,0.9c-0.6,0.3-1.2,0.7-1.9,1l-7.5,4l-1.9,1
			c-0.6,0.3-1.2,0.7-1.8,1.1l-3.6,2.1l-3.6,2.1l-1.8,1.1c-0.6,0.4-1.2,0.8-1.8,1.1l-7.1,4.6l-1.8,1.2c-0.6,0.4-1.1,0.8-1.7,1.2
			l-3.4,2.5l-3.4,2.5l-1.7,1.2l-1.7,1.3l-6.6,5.2l-1.7,1.3l-1.6,1.4l-3.2,2.8l-3.2,2.8c-0.5,0.5-1.1,0.9-1.6,1.4l-1.5,1.5l-6.1,5.8
			c-1,0.9-2,2-3,3l-2.9,3c-4,4-7.6,8.3-11.3,12.5c-7.1,8.7-14,17.6-19.9,27.1l-2.3,3.5c-0.8,1.2-1.4,2.4-2.2,3.6l-4.2,7.3
			c-1.4,2.5-2.6,5-3.9,7.5l-1.9,3.7c-0.6,1.2-1.2,2.5-1.8,3.8l-3.5,7.7c-1.1,2.6-2.1,5.2-3.1,7.8l-1.6,3.9c-0.5,1.3-0.9,2.7-1.4,4
			l-2.7,8c-0.8,2.7-1.6,5.4-2.4,8.1l-1.2,4c-0.4,1.3-0.7,2.7-1,4.1l-1.9,8.2c-0.6,2.7-1,5.5-1.6,8.3c-1.1,5.5-1.7,11.1-2.5,16.7
			l-0.3,2.1l-0.2,2.1l-0.3,4.2l-0.3,4.2c-0.1,1.4-0.3,2.8-0.3,4.2l-0.3,8.4c0,1.4-0.1,2.8-0.1,4.2l0.1,4.2l0.1,8.5
			c0.1,2.8,0.3,5.6,0.5,8.5c0.2,5.6,1,11.2,1.5,16.9c0.1,1.4,0.4,2.8,0.6,4.2l0.6,4.2c0.5,2.8,0.8,5.6,1.4,8.3l1.7,8.3
			c0.3,1.4,0.6,2.8,0.9,4.1l1,4.1c1.2,5.5,3,10.9,4.6,16.3c0.4,1.4,0.9,2.7,1.3,4l1.4,4l1.4,4c0.5,1.3,1,2.6,1.6,3.9l3.2,7.8
			l3.6,7.7c0.6,1.3,1.2,2.6,1.8,3.8l2,3.7l2,3.7c0.7,1.2,1.3,2.5,2,3.7l4.4,7.3l1.1,1.8l1.2,1.8l2.4,3.5c3,4.8,6.6,9.2,9.9,13.7
			l5.4,6.5c0.9,1.1,1.8,2.2,2.7,3.2l2.9,3.1l2.9,3.1l1.4,1.6c0.5,0.5,1,1,1.5,1.5l6.1,6c1,1,2.1,1.9,3.1,2.9l3.2,2.8l3.2,2.8
			c1.1,0.9,2.2,1.8,3.3,2.7c8.7,7.3,18.2,13.6,27.9,19.5l7.4,4.3c2.5,1.4,5.1,2.6,7.6,4l3.8,2l3.9,1.8c2.6,1.2,5.2,2.4,7.8,3.5
			l8,3.1c1.3,0.5,2.6,1.1,4,1.5l4.1,1.4l4.1,1.4c1.4,0.4,2.7,1,4.1,1.3l8.3,2.4c2.7,0.9,5.6,1.4,8.3,2.1l4.2,1
			c1.4,0.3,2.8,0.7,4.2,0.9c5.6,1,11.3,2.2,17,2.9C242.6,681,254.1,681.7,265.6,682.4z"/>
	</g>
	<path class="st0" d="M244.6,587.4c11,11,44.9,23.5,61.9,25.4c39,4.8,68.7,5.3,107.7,7.1c22,0.9,51.4,0,73.4-1.1
		c47-1.3,93-0.5,140,5.2c40,2.5,108,49.5,117,57.5c33,25,43,62.3,43,69v8c0.2,17.1-7,34.6-18.9,47.7c-1,1-3,2-5,3
		c-11,4.1-23-0.9-32-7.8c-7-6-12.1-12.9-17.1-20.9c-10.1-17.9-17.8-40.1-31.9-55c-1-1,0.6,0.2-0.4-0.8
		c-10.1-10.9-21.1-20.9-34.2-26.8c-7-3-14-5.9-22-7.9c-11-1.9-21-2.9-32-1.8c-85,0.5-169,6-254,1.5c-31-2.8-62-5.6-93.1-12.5
		c-19-4.9-37.1-10.8-54.1-20.7c-16.1-9.9-32.1-18.8-44.2-32.7"/>
	<path class="st0" d="M708.6,572.4c2.5,13.5,9,17.6,21,18c28,1,104.1-22.5,108-70c-3-81-22-153-26-234c0-3,26-26,28-29
		c15-21,16.5-26.5,19.5-50.5c2-25-3-49-12-72c3-35.8,1-70.6-5.9-106.3l-9.6,6.3l-1.3-14.2c-3.5,1.5-6.6,4.6-9.2,7.2
		c-19,20-39,37-57,59c-2,1-4,2-6,1c-24-11-50-11-76-11c-2,0-4-1-5-2c-6-18-11-35-19-52c-3-6-8-12-13-14c-14-7-20,14-26,24
		c-1,2,0,3-1,5c-4,7-5,14-8,21c-3,11-4,23-6,35c-1,3-2,5-4,7c-25,25-37,61-32.4,95.2"/>
</g>
<g>
	<path class="st4" d="M165.1,395.2c-1.9,0.4-5.3,0.5-10.2,0.1c-9.9-0.8-19.2-3.1-27.9-7c-3.2-1.4-5.1-3.7-5.7-6.7
		c-0.4-1.7-0.2-3.2,0.5-4.7c1-2,2.5-3.2,4.3-3.6c1.6-0.4,3.8,0.2,6.7,1.6c9.1,4.6,19.4,8.2,30.9,10.8c3,0.7,4.7,2,5.1,4
		C169.5,392.7,168.2,394.5,165.1,395.2z M251.2,359.2c3.5,0,5.3,1.7,5.3,5.1c0,3-2.9,9.1-8.8,18.3c-17.6,27.4-42.4,52.9-74.3,69
		c-14,7.1-22.6,10.7-25.8,10.7c-2.8,0-4.8-1.2-6-3.7c-0.6-1.3-0.9-2.6-0.9-3.9c0-2.6,1.1-4.6,3.3-5.9c0.4-0.3,3.9-1.7,10.5-4.3
		c19.9-7.9,42.1-24.9,58.9-39.7c14.6-12.8,22.6-24.9,31.5-40.6C246.7,360.9,248.8,359.2,251.2,359.2z M169.2,355
		c-1.4,0.4-3.6,0.6-6.5,0.4c-13-0.8-23.1-2.9-30.3-6.4c-3.4-1.7-5.4-3.7-6.2-6.2c-0.5-1.9-0.4-3.7,0.5-5.5c0.8-1.7,2.1-2.8,3.9-3.4
		c1.8-0.6,4.3-0.2,7.3,1.2c9.4,4.5,19.3,7.8,29.8,10.2c2.9,0.7,4.5,1.9,5,3.6C173.6,352,172.4,354,169.2,355z"/>
	<path class="st4" d="M333.7,406.9c-17.3,18.4-35.8,33.2-55.5,44.7c-3.8,2.2-6.4,3.4-7.8,3.4c-1.8,0-3.2-0.8-4.1-2.3
		c-0.6-0.9-0.9-1.8-0.9-2.8c0-1.5,0.7-2.8,2.1-4.1c0.4-0.4,2.4-1.7,6.1-4c16.6-10.3,33-24.4,49.1-42.1
		c14.2-15.7,24.9-30.8,32.1-45.4c1.8-3.7,2.7-6,2.7-7s-0.7-1.5-2.1-1.5c-0.6,0-1.9,0.1-4.1,0.4c-7.9,1-19.3,2.1-34.2,3.2
		c-10.9,0.8-18.6,1.5-22.9,1.8c-0.9,0.1-1.6,0.1-2.2,0.1c-4.7,0-7-2.1-7-6.3c0-3.5,1.6-5.7,4.9-6.5c0.9-0.2,3.3-0.5,7.1-0.7
		c13.7-0.8,28.7-2.1,44.8-3.6c11.4-1.1,18.2-1.6,20.3-1.6c3.3,0,5.9,0.7,8,2.2c2.5,1.7,3.7,4.2,3.7,7.5c0,2.7-1.5,7.2-4.5,13.5
		c-6.5,13.6-16,28-28.4,43.1c19.9,12.2,36,25.1,48.4,38.6c2.7,2.9,4,5.7,4,8.5c0,2.1-0.7,3.9-2.2,5.4c-1.4,1.4-3.1,2.2-5,2.2
		c-1.7,0-3.3-0.7-4.7-2c-0.2-0.2-1.3-1.4-3.1-3.5C365.7,433.4,350.8,419.7,333.7,406.9z M382,315.9c1.5,0,3.1,0.7,4.8,2
		c7.2,5.1,12.7,10.8,16.4,16.9c1,1.7,1.6,3.2,1.6,4.6c0,1.6-0.6,3-1.8,4.1c-1,0.9-2.3,1.4-3.7,1.4c-1.6,0-3.2-1.3-4.8-3.9
		c-4-6.4-8.3-12.1-13.2-17.1c-1.7-1.7-2.5-3.3-2.5-4.5C378.7,317.1,379.8,315.9,382,315.9z M397.4,303.8c2.8,0,7.6,3,14.2,9.1
		c5.5,5.1,8.3,9.2,8.3,12.3c0,1.9-0.6,3.4-1.9,4.4c-1.1,0.8-2.2,1.3-3.4,1.3c-1.6,0-3.2-1.2-4.8-3.5c-4.2-6.2-8.6-11.6-13.2-16
		c-1.7-1.7-2.5-3.1-2.5-4.3C394,304.9,395.1,303.8,397.4,303.8z"/>
	<path class="st4" d="M484,376.8v-30.5c0-1.4,0.2-2.6,0.5-3.5c-12.1,4.5-23.2,8.1-33,10.6c-2,0.5-3.4,0.7-4.3,0.7
		c-3.4,0-5.1-1.6-5.1-4.7c0-1.6,0.6-2.9,1.8-3.7c0.5-0.4,2.8-1.2,6.8-2.4c14-4.4,27.9-10.2,41.7-17.7c6-3.3,11-6.3,14.9-9.1
		c2.4-1.7,4.3-2.6,5.8-2.6c2.1,0,4,1,5.6,2.9c1,1.3,1.5,2.7,1.5,4.4c0,2.5-1.5,4.7-4.4,6.5c-6.3,3.9-13.8,7.7-22.4,11.6
		c2.8,1,4.3,3.4,4.3,7.1v29.6l3.8-0.3c28-1.7,43.9-2.5,47.8-2.5c5.8,0,8.7,2.2,8.7,6.5c0,3.5-1.5,5.7-4.5,6.5
		c-0.8,0.2-2.8,0.4-6.1,0.5c-13.7,0.4-30.2,1.2-49.7,2.4c-0.7,27.8-8,48.8-22.1,63.1c-7.3,7.4-12.9,11.1-16.9,11.1
		c-1.3,0-2.3-0.5-3.1-1.5c-0.7-0.9-1-1.9-1-2.9c0-1.7,1.1-3.5,3.4-5.5c10.8-9.5,18.2-21.2,22.2-35.2c2.3-8.1,3.5-17.5,3.8-28.2
		c-22.1,1.4-40.4,3.3-55,5.4c-1.2,0.2-2.1,0.3-2.7,0.3c-4.6,0-6.9-2-6.9-6.1c0-4.1,2.2-6.5,6.5-7.1
		C439.5,380.6,458.8,378.7,484,376.8z"/>
	<path class="st4" d="M648.7,366.3l2.6-0.3c19.6-1.8,30.5-2.8,32.8-3c1.5-0.2,2.9-0.3,4.1-0.3c10,0,14.9,4.7,14.9,14.1
		c0,5.7-1.5,16.1-4.5,31.4c-4.1,20.7-7.6,23.4-14.3,39.1c-4.7,11.1-10.1,16.6-16.3,16.6c-2.8,0-5.6-1.1-8.3-3.2
		c-2.2-1.7-7.9-6.4-17-14.1c-2.8-2.4-4.3-4.6-4.3-6.4c0-0.8,0.3-1.6,0.8-2.6c0.7-1.2,1.7-1.8,3-1.8c1.5,0,3.7,0.9,6.4,2.7
		c9.3,5.9,14.9,8.9,16.8,8.9c2,0,4.1-2.5,6.4-7.5c6.1-13.1,9.3-14.1,13.2-33.9c2.4-12.1,3.6-20.5,3.6-25c0-3-1.3-4.5-4-4.5
		c-0.9,0-1.9,0.1-3.2,0.2c-0.7,0.1-8.8,0.8-24.2,1.9c-1.6,0.1-6.2,0.4-12.6,1c-2.5,7.6-22.4,56.1-31.2,62.5
		c-2.3,1.9-4.4,2.9-6.2,2.9c-1.5,0-6.4-0.6-7.3-1.7c-0.9-1.2-1.9-2.4-1.9-3.7c0-1.3,1.1-2.5,2.2-3.8c0.4-0.5,2.6-2.6,6.4-6.3
		c6.3-5.5,13.7-19,15.6-24.8c3.5-7.3,4.9-14.9,7.8-23.7c-8.6,0.8-16.8,1.4-24.6,2c-7,0.5-11.5,0.9-13.4,1.1
		c-0.9,0.1-1.6,0.1-2.1,0.1c-4.8,0-7.2-2.2-7.2-6.7c0-3.3,1.5-5.4,4.5-6.4c1-0.3,2.9-0.5,5.7-0.7c4.7-0.3,17-1.2,36.8-2.7l3.7-0.3
		c3.2-14.8,5.3-26,6.1-33.3c0.6-5,3.1-7.5,7.6-7.5c2.3,0,4.2,0.8,5.6,2.3c1.1,1.3,1.7,2.9,1.7,4.8
		C654.4,338,652.5,348.9,648.7,366.3z"/>
</g>
<g>
	<path d="M565.9,573.6c-1.4,0-3.5,1-6.5,3.1c-8.3,5.8-15.5,8.6-21.7,8.6c-8.1,0-12.1-3.5-12.1-10.7c0-7.1,3-15.8,8.9-26.1
		c5.9-10.3,11.1-15.5,15.4-15.5c2.1,0,3.8,2.6,4.9,7.9c1,4.9,2.7,7.3,5.1,7.3c1.1,0,2.2-0.9,3.2-2.7c1.1-1.8,1.6-3.9,1.6-6.4
		c0-4.1-1.2-8-3.7-11.6c-2.4-3.7-5.4-5.5-8.7-5.5c-7.4,0-15.5,6-24.1,18.1c-8.6,12.1-13,23.6-13,34.5c0,6.5,1.7,11.5,5,15.1
		c3.4,3.6,8.2,5.4,14.4,5.4c7.2,0,14.5-2.4,22-7.2c7.5-4.8,11.2-8.8,11.2-12C568,574.4,567.3,573.6,565.9,573.6z"/>
	<path d="M641.2,584.9c-3.8-2-5.8-8.1-5.8-18.2c0-5.1,1.1-13.7,3.4-26.1c0.4-2.3,0.6-4,0.6-5.3c0-2.6-1.7-3.9-5-3.9
		c-1.2,0-2-0.7-2.6-2c-1.7-4-4.3-6-7.8-6c-9.7,0-19.4,6.3-29.3,19c-9.8,12.7-14.7,24.5-14.7,35.5c0,4.3,1.2,7.8,3.5,10.5
		c2.3,2.7,5.1,4.1,8.3,4.1c4.8,0,10-2,15.7-5.9c5.7-3.9,11.5-9.8,17.4-17.7c0,8.2,1,14.5,3.1,18.9c2.1,4.4,4.7,6.6,8,6.6
		c1.7,0,3.4-0.7,5.2-2c1.8-1.3,2.7-2.6,2.7-3.9C644,587.1,643.1,585.9,641.2,584.9z M614.9,568.2c-8.1,9.3-14.5,13.9-19.1,13.9
		c-3.2,0-4.8-2.4-4.8-7.2c0-6.8,3.7-15.4,11-25.7c7.3-10.3,13.7-15.5,19.2-15.5c3.9,0,5.9,3,5.9,9
		C627.1,550.4,623,558.9,614.9,568.2z"/>
	<path d="M700.5,511.2c1.8,0,3.5-1.9,4.9-5.8c1.4-3.9,2.2-7.3,2.2-10.4c0-3.8-1.3-6.9-3.9-9.4c-2.6-2.5-5.7-3.8-9.5-3.8
		c-7,0-12.8,2.9-17.3,8.6c-4.5,5.7-7.9,15.1-10,28c-0.6,3.6-1.2,6.3-1.7,8.3c-0.5,2-1.8,3.8-3.9,5.5c-2.7,2.1-4.1,4-4.1,5.8
		c0,1.1,0.9,2.3,2.7,3.4c1.8,1.2,2.6,2.2,2.6,2.9c0,4.4-0.6,10.8-1.8,19.3c-2,13.8-2.9,22.2-2.9,25.2c0,6.2,2.1,9.3,6.4,9.3
		c1.3,0,2.6-0.4,3.9-1.1c1.3-0.7,2.1-1.6,2.4-2.6c0-0.4-0.1-1.4-0.4-3.1c-0.3-1.8-0.5-4.4-0.5-8.1c0-12.2,1.4-26,4.2-41.6
		c0.8-0.4,4.2-0.9,10.3-1.6c7.1-0.7,11.7-1.5,13.8-2.4c2.1-0.9,3.2-2.2,3.2-3.9c0-1.7-1-2.5-2.9-2.4c-1.9,0.1-8.4,0.1-19.3,0.1
		c-2.5,0-3.8-1-3.8-2.9c0-6,1.6-13.8,4.8-23.4c3.2-9.6,7.3-14.4,12.2-14.4c4.5,0,6.8,4,6.8,12.1l-0.4,6.1
		C698.5,510.6,699.1,511.2,700.5,511.2z"/>
	<path d="M744.5,588.6c0.7-0.5,1.4-1,2.1-1.5c-0.2,0-0.3,0-0.5-0.1c-0.5,0.1-1.1,0.1-1.7,0.1c-0.7,0-1.4-0.1-2-0.1
		c-3.3-0.1-6.6-0.3-9.9-0.8c-0.2,0-0.5-0.1-0.7-0.1c0,0,0,0-0.1,0c-0.6,0-1.1-0.1-1.6-0.3c-0.7-0.1-1.3-0.2-1.8-0.5
		c-0.7-0.1-1.4-0.3-1.9-0.6c-0.1,0-0.3-0.1-0.4-0.1c-0.6-0.1-1.2-0.3-1.7-0.5c-0.3,0-0.5-0.1-0.8-0.1c-1.3-0.5-2.6-1-3.9-1.5
		c-0.6-0.4-1.2-0.8-1.6-1.3c-2-2.1-3-4.9-3-8.3c0-1.8,1.1-3.3,3.3-4.4c10.6-5.7,19-11.5,25.3-17.4c6.3-5.9,9.5-12.1,9.5-18.5
		c0-2.9-1-5.3-3-7.4c-2-2-4.5-3.1-7.7-3.1c-9.6,0-18.4,5.4-26.4,16.2c-8.1,10.8-12.1,22.1-12.1,34.1c0,7.1,1.8,12.6,5.5,16.6
		c3.3,3.5,7.8,5.5,13.5,5.9c3.7,0.7,7.9,1,9.3,1c2.8,0,36-6.2,36-9C758.4,588.4,750.9,588.9,744.5,588.6z M726.2,540
		c4.8-5.6,9.2-8.5,13-8.5c2.3,0,3.4,1.3,3.4,3.8c0,6.4-8.9,14.9-26.6,25.4C718,552.5,721.4,545.7,726.2,540z"/>
</g>
<g>
	<path class="st5" d="M356.1,544.1c0.6,0,1.4,0.3,2.5,0.8c4.1,1.9,7,3.6,8.8,5c1.1,0.9,1.7,1.9,1.7,3c0,0.6-0.2,1.3-0.6,1.9
		c-0.6,0.8-1.4,1.2-2.5,1.2c-0.9,0-1.9-0.5-2.9-1.4c-2.3-2.1-4.8-4.2-7.6-6.3c-0.9-0.6-1.3-1.4-1.3-2.2
		C354.1,544.8,354.8,544.1,356.1,544.1z M371.3,562.7c0.3,0,0.7,0.1,1.2,0.3c0.9,0.4,1.3,1.1,1.3,2c0,0.6-0.3,1.7-1,3.2
		c-3,7-6.4,13.3-10.3,18.7c-1,1.3-2,2-3.2,2c-0.7,0-1.4-0.2-2-0.7c-0.8-0.6-1.2-1.3-1.2-2.3c0-0.9,0.6-2.2,1.8-3.9
		c5.2-7.3,8.8-13.1,10.9-17.3C369.6,563.4,370.4,562.7,371.3,562.7z M360.9,527.1c1.6,0,4.5,1.3,8.5,4c1.5,1,2.4,1.7,2.9,2.1
		c0.8,0.8,1.1,1.6,1.1,2.5c0,0.6-0.2,1.2-0.6,1.8c-0.6,0.9-1.4,1.3-2.5,1.3c-1,0-2-0.5-3.2-1.7c-1.6-1.6-4-3.5-7.1-6
		c-0.8-0.6-1.2-1.4-1.2-2.2C358.9,527.7,359.6,527.1,360.9,527.1z M403.3,542.3v8.8l13.7-1c0.2,0,0.3,0,0.4,0c1.8,0,2.7,0.8,2.7,2.5
		c0,1.7-0.9,2.6-2.7,2.7l-14.2,1v9.5l21-1.3l0.4,0c1-0.1,1.7,0.3,2.3,1.1c0.3,0.4,0.5,1,0.5,1.6c0,1.8-0.8,2.7-2.5,2.8l-21.6,1.3
		v20.7c0,0.8-0.3,1.5-0.8,2c-0.5,0.5-1.2,0.8-2.1,0.8c-1.1,0-1.9-0.4-2.5-1.2c-0.3-0.4-0.5-1-0.5-1.6v-20.3l-19.9,1.2
		c-0.2,0-0.3,0-0.4,0c-1.8,0-2.7-0.9-2.7-2.6c0-1.7,0.8-2.6,2.5-2.7l20.5-1.3v-9.5l-13.7,0.9c-0.1,0-0.3,0-0.5,0
		c-1.7,0-2.6-0.9-2.6-2.7c0-1.5,0.9-2.3,2.6-2.5l14.3-1v-8.7l-16,1.1c-0.1,0-0.2,0-0.4,0c-1.8,0-2.7-0.8-2.7-2.5
		c0-1.6,0.8-2.5,2.5-2.6l22.5-1.6c1.7-2.5,3.7-6.7,6-12.6c0.7-1.8,1.8-2.7,3.1-2.7c0.5,0,1.1,0.1,1.6,0.4c1.2,0.5,1.7,1.4,1.7,2.6
		c0,2-2.2,6-6.6,11.9l10.5-0.8c0,0,0.2,0,0.4,0c1.7,0,2.6,0.9,2.6,2.6c0,1.6-0.8,2.5-2.5,2.6L403.3,542.3z M385.1,523.3
		c1.1,0,2.8,1.4,5.2,4.3c2.6,3.2,3.9,5.5,3.9,6.9c0,0.9-0.4,1.7-1.2,2.2c-0.7,0.5-1.4,0.7-2.2,0.7c-1.3,0-2.2-0.6-2.7-1.9
		c-1-3-2.5-5.8-4.3-8.4c-0.5-0.8-0.8-1.4-0.8-2C383,523.9,383.7,523.3,385.1,523.3z"/>
	<path class="st5" d="M467.9,525.1c10.4,8.7,21.5,15.5,33.1,20.4c1.6,0.7,2.5,1.3,2.5,1.9c0,0.5-0.6,0.9-1.7,1.2
		c-2.7,0.8-4.7,1.2-6,1.2c-0.9,0-1.7-0.2-2.5-0.7c-5.1-2.8-10.9-6.7-17.2-11.7c-4.2-3.3-7.9-6.3-10.9-9.1
		c-7.3,7.9-15.9,14.6-25.8,20.2c-4.7,2.6-7.5,3.9-8.5,3.9c-0.7,0-1.2-0.3-1.5-0.9c-0.2-0.4-0.4-0.8-0.4-1.2c0-0.6,0.3-1.2,0.9-1.7
		c0.2-0.1,1.2-0.7,3.1-1.7c6.8-3.5,13.5-8.3,20.2-14.4c3.8-3.5,6.9-6.9,9.3-10.2c1-1.4,2-2.1,3-2.1c0.6,0,1.2,0.2,1.8,0.5
		c0.8,0.5,1.2,1.1,1.2,2.1C468.6,523.7,468.4,524.4,467.9,525.1z M446,549.4c-0.9-0.3-1.4-1-1.4-2c0-1.4,0.7-2.1,2.1-2.2l15.3-1.3
		v-7.7c0-0.8,0.3-1.5,0.9-2c0.5-0.4,1.2-0.6,2-0.6c1,0,1.8,0.3,2.3,1c0.3,0.5,0.5,1,0.5,1.6v7.2l12-1c0.3,0,0.5,0,0.6,0
		c1.4,0,2.5,0.4,3.4,1.3c0.8,0.9,1.2,2.1,1.2,3.5c0,0.2,0,0.5-0.1,0.9l-2.1,18.6c-0.2,1.8-1.1,2.7-2.8,2.7c-1.5,0-2.3-0.7-2.6-2.1
		l-25.8,2.1v19.3c3.8-0.7,8.4-2.2,13.8-4.5c0.8-0.3,1.4-0.5,1.9-0.5c0.8,0,1.4,0.3,1.9,1c0.2,0.3,0.3,0.7,0.3,1
		c0,0.8-0.5,1.5-1.5,2.1c-4.1,2.2-9,4.3-15,6.3c-1.7,0.6-2.9,0.8-3.5,0.8c-0.7,0-1.5-0.4-2.3-1.3c-0.9-0.9-1.3-2.1-1.3-3.7V549.4z
		 M451.7,549.1v5.4l26.9-2.1l0.3-3.7c0-0.1,0-0.3,0-0.4c0-1-0.4-1.5-1.2-1.4l-0.3,0L451.7,549.1z M451.7,558.7v6.1l26.1-2l0.5-6
		L451.7,558.7z M473.1,577.9c4.6-3.3,8.5-6.4,11.8-9.4c0.9-0.8,1.7-1.2,2.6-1.2c0.8,0,1.4,0.3,2,0.9c0.7,0.7,1,1.5,1,2.3
		c0,0.9-0.5,1.8-1.6,2.5c-3.2,2.4-7,4.8-11.4,7.2c6.4,3.2,13,5.8,19.9,7.7c2.1,0.6,3.2,1.2,3.2,1.8c0,0.5-0.5,0.9-1.5,1.2
		c-3.2,1-5.7,1.6-7.5,1.6c-1.3,0-2.7-0.4-4.3-1.1c-5.6-2.6-11.7-6.1-18.2-10.5c-7.1-4.9-10.6-8-10.6-9.3c0-0.4,0.2-0.8,0.6-1.2
		c0.5-0.5,1.1-0.7,1.7-0.7s2,0.8,4,2.5C466.9,574,469.7,575.9,473.1,577.9z"/>
</g>
</svg>
